<svg width="16" height="18" viewBox="0 0 16 18" fill="none" xmlns="http://www.w3.org/2000/svg">
<path d="M9.75 1.29416V4.29083C9.75 4.69666 9.91167 5.08666 10.2 5.37416C10.4891 5.66197 10.8804 5.82348 11.2883 5.82333H14.7258" stroke="black" stroke-width="1.5" stroke-linecap="round" stroke-linejoin="round"/>
<path d="M14.8032 6.14V13.28C14.7867 13.747 14.6779 14.2062 14.4831 14.6309C14.2883 15.0557 14.0113 15.4377 13.6682 15.755C13.3248 16.0737 12.922 16.3217 12.4827 16.4847C12.0435 16.6477 11.5764 16.7226 11.1082 16.705H4.78322C4.31217 16.7265 3.8415 16.6549 3.3982 16.4941C2.9549 16.3334 2.54768 16.0868 2.19989 15.7683C1.85345 15.4502 1.57368 15.0664 1.37683 14.6392C1.17998 14.2121 1.06998 13.75 1.05322 13.28V4.71834C1.06977 4.25131 1.17857 3.79218 1.37337 3.36741C1.56817 2.94263 1.84511 2.5606 2.18822 2.24334C2.53162 1.92461 2.93446 1.67665 3.37371 1.51365C3.81296 1.35065 4.28003 1.27578 4.74822 1.29334H9.50989C10.2368 1.29077 10.9384 1.55972 11.4774 2.0475L13.9441 4.31584C14.2073 4.54257 14.4198 4.82217 14.5678 5.13646C14.7159 5.45075 14.7961 5.79268 14.8032 6.14Z" stroke="black" stroke-width="1.5" stroke-linecap="round" stroke-linejoin="round"/>
</svg>
