<svg width="16" height="18" viewBox="0 0 16 18" fill="none" xmlns="http://www.w3.org/2000/svg">
<path d="M4.92839 1.5H2.59505C2.24143 1.5 1.90229 1.64048 1.65224 1.89052C1.40219 2.14057 1.26172 2.47971 1.26172 2.83333V6.83333C1.26172 7.00843 1.29621 7.18181 1.36321 7.34358C1.43022 7.50535 1.52843 7.65233 1.65224 7.77614C1.77605 7.89995 1.92304 7.99817 2.08481 8.06517C2.24658 8.13218 2.41996 8.16667 2.59505 8.16667H4.92839C5.10348 8.16667 5.27686 8.13218 5.43863 8.06517C5.6004 7.99817 5.74738 7.89995 5.87119 7.77614C5.99501 7.65233 6.09322 7.50535 6.16022 7.34358C6.22723 7.18181 6.26172 7.00843 6.26172 6.83333V2.83333C6.26172 2.47971 6.12124 2.14057 5.87119 1.89052C5.62115 1.64048 5.28201 1.5 4.92839 1.5ZM4.92839 11.5H2.59505C2.24143 11.5 1.90229 11.6405 1.65224 11.8905C1.40219 12.1406 1.26172 12.4797 1.26172 12.8333V15.1667C1.26172 15.5203 1.40219 15.8594 1.65224 16.1095C1.90229 16.3595 2.24143 16.5 2.59505 16.5H4.92839C5.28201 16.5 5.62115 16.3595 5.87119 16.1095C6.12124 15.8594 6.26172 15.5203 6.26172 15.1667V12.8333C6.26172 12.4797 6.12124 12.1406 5.87119 11.8905C5.62115 11.6405 5.28201 11.5 4.92839 11.5ZM13.2617 1.5H10.9284C10.5748 1.5 10.2356 1.64048 9.98558 1.89052C9.73553 2.14057 9.59505 2.47971 9.59505 2.83333V5.16667C9.59505 5.52029 9.73553 5.85943 9.98558 6.10948C10.2356 6.35952 10.5748 6.5 10.9284 6.5H13.2617C13.6153 6.5 13.9545 6.35952 14.2045 6.10948C14.4546 5.85943 14.5951 5.52029 14.5951 5.16667V2.83333C14.5951 2.47971 14.4546 2.14057 14.2045 1.89052C13.9545 1.64048 13.6153 1.5 13.2617 1.5ZM13.2617 9.83333H10.9284C10.5748 9.83333 10.2356 9.97381 9.98558 10.2239C9.73553 10.4739 9.59505 10.813 9.59505 11.1667V15.1667C9.59505 15.5203 9.73553 15.8594 9.98558 16.1095C10.2356 16.3595 10.5748 16.5 10.9284 16.5H13.2617C13.6153 16.5 13.9545 16.3595 14.2045 16.1095C14.4546 15.8594 14.5951 15.5203 14.5951 15.1667V11.1667C14.5951 10.813 14.4546 10.4739 14.2045 10.2239C13.9545 9.97381 13.6153 9.83333 13.2617 9.83333Z" stroke="black" stroke-width="1.5" stroke-miterlimit="10" stroke-linejoin="round"/>
</svg>
