<svg width="703" height="837" viewBox="0 0 703 837" fill="none" xmlns="http://www.w3.org/2000/svg">
<rect width="703" height="837" fill="white"/>
<path d="M598.475 600.742C594.57 691.433 533.539 773.617 458.726 791.295C383.914 808.972 302.037 761.953 265.583 682.186C261.56 673.384 257.978 664.151 254.396 654.919C245.148 631.086 235.904 607.261 219.093 590.867C199.899 572.149 175.213 567.142 150.279 562.086C134.445 558.875 118.512 555.643 103.82 548.867C68.4039 532.534 40.905 493.838 33.2393 449.549C20.8171 377.778 60.1648 304.501 112.636 266.2C165.108 227.899 228.16 217.232 289.319 209.013C312.715 205.868 331.719 184.877 345.292 161.972C350.547 153.105 355.275 143.787 359.999 134.476C367.478 119.737 374.948 105.014 384.486 92.1229C424.874 37.5362 500.085 28.3249 551.528 67.5759C602.971 106.827 627.593 187.538 613.913 258.438C611.557 270.649 608.212 282.54 604.867 294.431L604.867 294.433C601.665 305.816 598.463 317.199 596.128 328.866C591.136 353.804 590.183 379.609 589.615 405.236C588.937 435.791 588.777 466.425 591.181 496.856C592.017 507.441 593.163 518.014 594.309 528.584C596.912 552.604 599.515 576.613 598.475 600.742Z" fill="#FFC01D"/>
<path d="M289.234 187.352C317.207 170.783 339.471 142.009 353.491 108.766C355.329 104.407 357.071 99.776 357.007 94.8993C356.942 90.0225 354.559 84.857 350.597 83.6185C344.919 81.8436 340.035 88.3255 336.495 93.9006C312.17 132.199 276.766 162.265 236.816 168.822C221.472 171.34 205.894 170.394 190.426 169.443L166.265 167.958C146.806 166.762 127.077 165.59 108.029 170.479C88.9811 175.367 70.3692 187.125 59.9077 206.697C56.5777 212.927 54.0835 220.269 55.0049 227.571C55.949 235.054 60.4167 241.406 65.7983 245.432C71.1798 249.458 77.432 251.472 83.6281 253.157C88.1647 254.391 92.7982 255.484 97.4401 255.095C105.029 254.459 111.916 249.966 118.617 245.594C119.064 245.302 119.509 245.012 119.954 244.723C131.666 237.115 143.802 230.359 156.46 225.34C174.918 218.019 194.328 214.437 213.689 210.863C239.771 206.049 265.767 201.251 289.234 187.352Z" fill="#FFC01D"/>
<path d="M143.766 628.748L143.782 628.749C144.922 628.804 146.062 628.858 147.198 628.928C165.173 630.041 182.961 635.288 199.293 644.295C205.521 647.729 211.828 652.026 215.325 659.056C219.653 667.755 224.847 675.841 230.766 683.091C233.061 685.904 235.548 688.655 238.613 690.091C241.678 691.528 245.463 691.397 247.95 688.825C250.971 685.7 251.167 680.152 250.236 675.518C248.71 667.924 244.905 661.306 241.139 654.913C228.78 633.937 215.768 612.964 198.569 597.561C181.37 582.159 159.174 572.833 138.123 578.154C130.854 579.991 123.649 583.735 118.83 590.47C114.011 597.204 112.107 607.339 115.577 615.162C118.331 621.368 123.913 625.187 129.628 626.907C134.234 628.294 139.005 628.521 143.765 628.748H143.766Z" fill="#FFC01D"/>
<path d="M629.968 313.245C625.163 311.088 619.721 313.693 615.654 317.426C607.621 324.799 602.869 336.333 600.706 348.132C598.544 359.93 598.719 372.135 598.903 384.209L600.492 487.954C600.608 495.533 600.891 503.702 604.805 509.68C606.03 511.551 607.708 513.193 609.689 513.434C612.092 513.726 614.314 511.92 616.049 509.92C625.537 498.983 626.783 481.754 627.919 466.05L627.96 465.48C629.629 442.428 632.518 419.502 636.606 396.883C637.755 390.522 639.019 384.121 641.423 378.278C648.961 359.961 647.158 336.71 636.931 320.345C635.081 317.385 632.868 314.547 629.968 313.245Z" fill="#FFC01D"/>
<path d="M457.846 453.671C462.916 455.334 467.458 460.361 467.956 466.595C468.918 464.115 471.03 462.323 473.312 462.05L469.999 466.243L474.192 466.343L468.422 470.179C471.999 478.054 471.42 487.768 469.127 496.295C467.724 501.514 465.694 506.742 466.09 512.202C466.479 517.572 470.485 523.058 474.862 521.959L475.082 521.899C480.344 520.316 486.106 521.232 490.835 524.404C497.629 528.961 501.751 537.424 506.42 544.86C510.542 551.424 515.421 557.528 521.519 561.331C527.617 565.134 535.095 566.389 541.448 563.232C544.6 561.665 547.422 559.072 550.767 558.247C554.112 557.421 557.539 559.635 558.767 563.409C559.311 565.079 558.143 571.264 555.166 578.489C555.65 578.324 556.156 578.217 556.686 578.176C572.332 576.967 588.122 572.917 601.587 563.352C605.867 560.312 609.865 556.75 613.834 553.158L616.147 551.059L617.547 549.776C626.257 541.742 634.855 532.787 638.436 520.568L638.623 519.911L639.02 518.467C639.786 515.733 640.757 512.907 642.974 512.058C646.042 510.883 648.836 514.419 650.701 517.548L664.14 540.106C664.485 540.685 664.838 541.285 664.97 541.977C665.552 545.043 661.709 546.592 659.233 545.503C654.729 543.524 651.115 537.626 646.39 538.638C643.069 539.35 641.084 543.178 639.443 546.785L639.028 547.705C629.083 569.873 612.349 587.608 592.703 596.799C587.639 599.169 582.406 600.984 577.182 602.796L566.628 606.456L568.487 606.851C584.235 610.139 601.036 612.145 615.337 603.836C624.858 598.305 632.193 588.782 639.112 579.157L641.623 575.645L642.658 574.177C646.905 568.112 650.94 561.619 652.179 553.933C652.655 550.981 655.784 549.573 658.218 550.372C660.652 551.172 662.504 553.464 664.228 555.661L677.292 572.309C678.321 573.62 679.404 575.068 679.555 576.854C679.706 578.64 678.361 580.661 676.913 580.16L662.747 575.261C661.418 574.802 659.946 574.353 658.695 575.057C657.737 575.596 657.118 576.702 656.569 577.794L641.339 608.415C637.051 617.039 629.103 622.038 621.293 625.777C602.567 634.743 582.245 638.956 562.075 638.054C559.884 637.955 557.691 637.797 555.526 637.391C547.389 635.865 540.041 630.939 532.926 625.956C534.174 631.389 533.062 635.971 525.653 636.319C519.09 636.627 503.015 604.455 498.016 602.786C470.729 593.677 466.249 575.693 457.482 563.409C457.482 563.409 439.767 566.135 428.071 563.232C400.653 556.426 382.228 535.491 375.586 534.158C368.943 532.826 364.563 537.894 362.512 534.82L362.512 532.592C362.829 531.98 366.004 528.448 375.058 530.742C387.703 533.945 407.916 546.036 423.352 548.294C439.556 550.665 453.282 547.527 453.207 547C453.053 545.926 457.126 541.361 453.872 539.056C450.617 536.751 403.373 514.175 393.104 495.361L392.981 495.126C391.216 491.637 389.874 482.966 393.427 486.936L394.422 484.836C398.247 489.131 410.806 498.948 423.853 508.627C437.647 518.86 457.126 525.413 457.482 525.126C465.421 518.733 458.38 514.106 457.066 512.747C453.991 509.566 449.907 507.832 447.257 504.149C440.901 495.313 445.441 479.509 438.175 471.73C437.076 470.553 435.742 469.627 434.946 468.144C433.581 465.603 434.252 462.067 435.905 459.781C437.558 457.495 439.975 456.219 442.367 455.225C447.332 453.161 452.776 452.009 457.846 453.671Z" fill="white"/>
<ellipse cx="462.105" cy="498.852" rx="1.87467" ry="2.232" fill="#FFB61D"/>
<ellipse cx="450.675" cy="498.852" rx="1.39027" ry="2.232" fill="#FFB61D"/>
<path d="M382.74 509.668C365.311 504.302 346.992 503.064 329.165 506.046C330.513 498.114 332.201 490.263 334.221 482.535C328.421 484.763 321.572 478.434 321.947 471.19C322.322 463.947 329.772 458.667 335.299 461.727C337.197 456.511 337.318 450.414 335.627 445.097C334.816 442.547 338.049 441.076 340.339 441.075L352.995 441.072C354.765 441.071 357.231 440.093 356.792 438.053C355.75 433.215 358.544 427.686 362.622 426.517C366.627 425.37 371.135 428.635 372.169 433.366L372.223 433.63C373.184 438.711 378.59 440.324 382.964 440.224L385.141 440.162C388.924 440.068 392.866 440.214 395.398 443.365C398.427 447.132 397.75 453.133 396.752 458.248L396.685 458.588C395.271 465.688 393.763 472.762 392.162 479.806C395.271 509.595 387.572 511.156 382.74 509.668Z" fill="white"/>
<path d="M237.367 484.797C235.519 470.479 235.522 455.825 237.374 441.509L237.468 440.816C237.928 437.567 238.735 434.137 241.015 432.347C242.722 431.007 244.879 430.906 246.935 430.905L262.677 430.957C263.394 430.959 264.179 430.991 264.718 431.553C265.256 432.116 265.242 433.408 264.551 433.635C262.902 434.179 261.954 436.443 262.155 438.466C262.355 440.49 263.46 442.241 264.757 443.569C267.852 446.736 272.662 447.861 276.087 445.221C279.512 442.58 280.318 435.778 277.072 432.833C284.425 432.655 291.782 432.683 299.135 432.916L301.892 433.013C302.783 433.047 303.768 433.132 304.391 433.892C304.858 434.462 305.012 435.291 305.117 436.078C305.931 442.138 305.041 448.505 302.622 453.924C302.236 454.788 301.344 455.739 300.736 455.082C298.153 452.289 293.808 452.67 291.165 455.381C288.521 458.093 287.499 462.596 287.966 466.713C288.416 470.675 290.842 474.907 294.196 474.707C296.837 474.55 299.775 471.799 301.771 473.865L298.408 491.756C297.811 494.934 296.738 498.704 294.063 499.385C278.621 503.318 262.43 503.021 247.098 498.523L246.354 498.299C244.493 497.719 242.64 496.969 241.188 495.489C238.661 492.914 237.872 488.711 237.367 484.797Z" fill="white"/>
<path d="M358.515 344.406L395.832 345.299L396.441 345.317C397.562 345.359 398.691 345.476 399.7 346.037C401.981 347.304 403.027 350.429 403.721 353.31C407.423 368.689 406.966 385.446 402.433 400.507L402.243 401.123C401.653 402.976 400.881 404.824 399.488 405.866C398.341 406.724 396.944 406.904 395.584 406.99L395.293 407.008C389.744 407.321 384.176 407.152 378.648 406.502C381.527 404.392 382.254 399.255 380.426 395.869C378.598 392.483 374.735 391.069 371.483 392.168C369.5 392.839 367.654 394.452 366.937 396.752C366.219 399.052 366.913 402.006 368.745 403.129C370.012 403.906 369.794 406.352 368.684 407.418C367.575 408.483 366.033 408.559 364.608 408.586L345.885 408.948C344.478 408.975 342.998 408.982 341.763 408.179C340.011 407.041 339.205 404.589 338.712 402.287C337.521 396.731 337.36 390.866 338.244 385.23C339.308 389.681 343.915 392.384 347.528 390.678C351.141 388.971 352.939 383.242 351.15 379.133C349.362 375.024 344.394 373.469 341.14 375.999L341.004 374.563C340.537 369.529 340.174 364.429 340.986 359.471C341.876 354.041 344.413 348.708 348.571 346.24C351.605 344.441 355.107 344.342 358.515 344.406Z" fill="white"/>
<path d="M245.339 394.383C240.084 394.408 234.829 394.151 229.593 393.613L229.085 393.557C227.21 393.334 225.244 392.887 224.016 391.227C222.358 388.987 222.763 385.609 223.261 382.653L223.311 382.359C225.536 369.392 226.41 356.096 225.908 342.874L225.814 340.595C225.675 336.496 225.895 331.847 228.755 329.739C229.625 329.097 230.635 328.8 231.642 328.558L231.977 328.479C250.289 324.232 269.356 324.663 287.52 329.733C289.912 330.401 290.577 334.258 289.784 337.026C288.991 339.795 287.288 342.122 286.65 344.946C286.013 347.771 287.181 351.595 289.637 351.686C294.747 351.877 299.078 358.058 298.391 364.09C297.704 370.122 292.229 374.697 287.216 373.499C286.04 373.218 285.623 375.288 285.753 376.708L287.183 392.454C287.417 395.024 284.353 395.836 282.189 395.635L269.56 394.465C267.576 394.281 264.915 394.688 264.609 397.03C263.848 402.859 258.828 407.411 253.906 406.735C248.984 406.059 244.966 400.266 245.339 394.383Z" fill="white"/>
<path fill-rule="evenodd" clip-rule="evenodd" d="M211.346 491.289C212.747 491.694 214.753 492.415 214.642 493.992C212.4 525.788 202.747 519.937 194.14 529.053C191.865 531.462 190.506 537.16 189.529 537.291C193.152 539.283 198.409 547.274 207.456 547.639C232.663 548.657 241.837 526.758 241.837 526.758C242.43 519.736 239.439 507.09 243.173 510.631C245.75 513.076 245.24 501.168 248.76 502.354C249.818 502.71 247.971 510.627 248.76 511.101C249.197 511.363 249.842 509.204 250.968 507.487C251.907 506.055 253.355 504.994 253.655 505.307C253.858 505.52 253.663 507.566 252.818 509.297C251.63 511.731 249.643 514.073 249.921 514.463C250.227 514.893 255.467 509.087 255.786 509.594C257.906 512.962 244.477 551.72 221.817 559.037L220.022 559.611C206.813 563.789 201.265 564.359 189.027 559.037C183.224 556.513 179.614 580.085 176.389 587.93C174.352 592.884 164.459 605.025 159.942 601.353C153.982 596.509 149.122 587.493 144.05 582.932L143.724 582.647C140.268 579.696 132.45 575.219 120.27 569.214L120.819 568.912C123.36 567.537 129.905 564.174 134.931 559.037C142.072 551.737 145.939 536.058 150.917 527.602C155.832 519.253 162.428 520.483 158.447 519.006C158.447 519.006 148.361 512.643 143.724 512.061C128.239 510.115 108.052 518.829 101.594 524.444C92.7329 532.148 101.537 543.487 89.2932 537.929C85.2127 536.077 96.1495 512.082 111.236 502.354C132.205 488.831 152.033 485.111 171.911 506.638C180.001 515.398 180.802 523.197 182.971 529.143L182.527 527.686C206.508 525.804 170.577 497.219 200.574 490.065C203.725 489.314 207.031 490.096 210.189 490.965L211.346 491.289Z" fill="white"/>
<ellipse cx="195.902" cy="511.128" rx="1.87467" ry="2.232" fill="#FFB61D"/>
<ellipse cx="206.214" cy="515.592" rx="1.87467" ry="2.232" fill="#FFB61D"/>
<path fill-rule="evenodd" clip-rule="evenodd" d="M97.3828 597.688C117.703 614.44 91.7039 591.301 113.906 618.876C118.389 624.445 141.09 592.641 143.431 611.49C144.286 618.364 142.423 625.521 143.559 632.338C144.618 638.699 167.855 634.88 169.65 632.098C176.157 622.013 155.908 596.106 151.662 591.965C127.969 568.857 120.151 570.46 98.0127 594.369L97.3828 597.688Z" fill="white"/>
<path fill-rule="evenodd" clip-rule="evenodd" d="M625.985 178.956C629.97 179.523 633.677 180.05 633.677 174.52C633.677 173.204 620.263 161.644 616.288 166.096C611.177 171.82 607.117 178.385 603.186 184.744C594.931 198.093 587.238 210.533 571.553 212.387L571.364 212.412C565.284 213.286 576.611 219.711 589.333 212.387C598.08 207.351 609.717 191.419 615.244 183.852C616.691 181.872 617.719 180.464 618.167 179.975L618.282 179.857C620.166 178.128 623.146 178.552 625.985 178.956ZM644.907 193.924L658.179 206.467C660.765 208.911 657.737 214.177 654.443 214.429C652.531 214.575 650.698 213.875 648.856 213.171C647.522 212.662 646.184 212.151 644.808 211.957C637.014 210.86 631.072 219.599 626.237 226.96C621.819 233.686 616.981 240.022 611.776 245.897L611.072 246.685L610.339 247.489C606.152 252.02 601.457 256.125 595.933 257.308C587.801 259.049 579.723 254.091 573.08 248.241C571.459 246.813 569.867 245.315 568.274 243.816C563.341 239.174 558.399 234.524 552.549 231.918C547.479 235.212 542.734 239.192 538.4 243.733L538.593 243.552C545.868 252.233 550.955 263.481 553.038 275.491L551.647 275.2L550.728 275.013C542.132 273.297 532.926 272.282 525.661 277.759C523.101 279.689 520.818 282.384 518.56 285.049C516.988 286.905 515.429 288.746 513.797 290.303C514.211 290.597 514.636 290.901 515.07 291.218C523.108 295.133 531.629 297.64 540.274 298.635C541.595 298.786 542.931 298.907 544.27 299.028H544.27L544.27 299.028C550.472 299.589 556.752 300.157 562.051 303.864L563.91 305.186C566.892 307.289 570.213 309.289 572.712 306.855C573.43 306.155 573.9 305.196 574.373 304.232L574.373 304.232L574.373 304.231C574.66 303.645 574.948 303.057 575.294 302.524C576.207 301.117 578.018 300.127 579.153 301.283L579.613 305.583C579.947 302.816 582.189 300.568 584.536 300.645C586.882 300.723 589.016 303.117 589.221 305.901C589.592 310.955 584.779 313.98 580.693 315.589L559.52 323.713C551.955 326.616 543.568 325.112 536.275 321.349C529.484 317.846 523.494 312.514 517.769 306.91L516.5 305.661C512.177 301.377 506.333 296.724 501.428 300C509.951 300.617 516.167 309.362 521.251 317.633L521.739 318.431C522.562 319.782 523.41 321.204 523.613 322.855C524.182 327.477 519.772 330.545 516.048 332.014C519.186 334.016 517.631 339.828 515.199 342.924C511.661 347.428 507.028 350.669 502.03 352.275L501.573 354.154C501.544 354.281 501.531 354.347 501.534 354.349C503.892 354.154 505.345 357.924 504.385 360.495C503.424 363.066 501.054 364.434 498.78 365.2C491.287 367.722 482.824 365.732 476.699 360.008L475.508 360.747C470.333 363.936 464.98 366.901 459.229 367.906C453.035 368.989 446.216 367.469 441.739 362.26L442.034 363.027C442.667 364.699 443.236 366.429 443.256 368.251C443.279 370.353 442.366 372.622 440.694 373.297C437.934 374.41 435.523 370.898 434.091 367.877C433.306 370.203 434.115 372.82 434.902 375.365C435.8 378.268 436.668 381.077 435.108 383.251C433.483 385.515 430.402 384.935 428.166 383.6C419.792 378.598 415.857 366.01 417.671 355.066C419.485 344.122 426.095 334.958 433.965 328.906C428.621 324.243 424.713 317.3 423.12 309.644C423.544 310.295 425.439 308.199 428.13 305.221C433.053 299.774 440.641 291.376 446.772 291.454C447.947 291.469 449.844 292.551 451.701 293.611C453.047 294.379 454.371 295.134 455.387 295.465C455.472 295.336 455.573 295.219 455.691 295.117L454.532 294.125C452.197 292.151 449.761 290.295 446.998 289.477C443.774 288.523 439.958 289.308 437.904 292.416C432.882 300.017 426.519 306.356 419.35 310.901L423.6 320.243C421.843 321.242 419.655 321.059 418.025 319.799L417.825 319.636L417.95 319.823C420.398 323.624 418.247 330.252 414.24 331.004C410.174 333.035 406.073 326.967 406.473 321.738C406.754 318.073 408.279 314.826 409.806 311.572C410.458 310.184 411.111 308.794 411.668 307.37C413.548 302.56 414.374 297.216 415.196 291.907C416.322 284.63 417.438 277.416 421.243 271.728C423.908 267.744 427.641 264.974 431.47 262.702C446.664 253.685 464.645 251.529 481.045 256.757C483.838 244.843 489.375 233.857 496.892 225.318L497.341 224.818C500.216 221.663 503.793 218.845 507.608 219.362L507.91 219.41C511.697 220.098 514.99 216.618 517.743 213.397L518.592 212.405L519.256 211.642C524.72 205.43 531.062 199.696 538.526 199.078C545.166 198.527 551.522 202.157 557.253 206.187C563.738 210.746 569.906 215.943 575.674 221.707L576.688 222.73C576.944 222.992 577.202 223.255 577.46 223.519L577.471 223.53L577.481 223.541L577.502 223.562L577.504 223.564C582.944 229.127 588.896 235.215 595.978 234.71C603.238 234.193 608.542 227.017 613.429 220.405C613.825 219.87 614.217 219.339 614.608 218.815C620.637 210.735 627.502 203.621 634.451 196.653L637.431 193.674C638.333 192.773 639.304 191.836 640.471 191.656C642.113 191.402 643.61 192.698 644.907 193.924ZM513.686 330.892C512.211 330.542 510.198 330.695 507.647 331.351C509.327 331.358 510.741 331.323 511.889 331.244C512.445 331.162 512.998 331.059 513.541 330.929L513.686 330.892ZM459.036 292.203C459.575 291.545 460.143 290.852 460.772 290.259C461.944 289.523 463.263 289.15 464.592 289.3C469.088 289.809 472.493 295.502 471.905 300.833C469.532 307.836 463.658 311.831 457.849 315.783C454.27 318.217 450.716 320.635 448.02 323.729C448.697 322.4 449.437 321.34 450.188 320.689C452.533 318.657 454.985 316.896 457.295 315.236L457.295 315.236L457.296 315.236L457.296 315.236L457.296 315.235L457.297 315.235C459.238 313.84 461.081 312.517 462.676 311.165C465.187 309.036 466.874 307.013 468.18 305.445C469.18 304.246 469.957 303.314 470.711 302.804C470.773 302.762 473.606 295.924 466.757 291.454C461.585 288.08 459.281 292.349 458.043 294.643C457.641 295.388 457.351 295.924 457.112 295.924C457.05 295.924 456.964 295.913 456.856 295.89C457.026 295.162 457.287 294.459 457.62 293.801C458.084 293.366 458.548 292.799 459.036 292.203ZM460.498 290.439C459.322 291.251 458.313 292.429 457.62 293.801L457.449 293.955C457.109 294.25 456.766 294.467 456.413 294.566C455.701 294.766 454.006 293.218 452.57 291.906C451.712 291.122 450.946 290.422 450.539 290.232C447.854 288.979 447.539 288.961 445.677 288.856C445.363 288.838 445.004 288.818 444.583 288.789L443.811 288.731C443.642 288.719 443.454 288.71 443.256 288.7C441.713 288.623 439.492 288.512 439.935 287.084C447.867 261.524 481.756 255.962 476.153 284.855C475.69 287.243 474.473 289.335 473.257 291.426C472.649 292.471 472.04 293.517 471.526 294.599C469.336 290.894 466.95 288.941 464.368 288.74C462.928 288.628 461.773 289.316 460.772 290.259L460.498 290.439ZM521.97 267.51L521.977 267.495C520.112 271.716 518.109 276.797 515.969 282.737C517.578 277.459 519.594 272.36 521.97 267.51ZM537.08 271.403L536.82 271.414C534.752 271.518 532.897 271.886 531.255 272.519C529.433 273.222 527.495 274.397 525.439 276.045C529.036 273.673 533.011 272.087 537.08 271.403Z" fill="white"/>
<path fill-rule="evenodd" clip-rule="evenodd" d="M431.338 378.45C429.713 380.714 427.359 379.983 425.201 377.479C420.686 372.239 418.872 362.127 420.686 351.184C422.5 340.24 429.571 335.731 437.441 329.679C433.91 327.947 427.512 316.967 426.87 306.296C429.047 309.64 429.161 315.642 431.338 318.987C433.404 322.16 437.532 326.023 439.597 329.197C439.861 329.602 440.088 330.283 439.714 330.536C432.169 335.638 427.28 337.327 422.83 351.183C418.38 365.039 427.415 377.857 428.616 377.479C430.094 377.014 429.57 374.678 428.721 373.163C426.325 368.891 428.604 363.194 430.557 358.613C431.601 360.007 429.091 364.006 429.62 368.163C430.136 372.222 432.784 376.434 431.338 378.45Z" fill="#E7EAEE"/>
<ellipse cx="462.105" cy="332.568" rx="1.87467" ry="2.232" fill="#FFB61D"/>
<ellipse cx="455.544" cy="323.64" rx="1.87467" ry="2.232" fill="#FFB61D"/>
<path d="M175.198 345.56C176.281 347.968 174.578 351.412 172.283 351.451C170.318 338.299 168.199 324.689 161.805 313.712C149.561 292.694 124.33 285.79 113.847 263.463C106.71 269.511 95.7958 267.969 90.0452 260.1C86.4689 255.206 80.235 254.605 74.8642 255.697C69.4935 256.789 64.2464 259.203 58.8006 258.998C56.4376 258.909 53.863 258.152 52.4878 255.863C51.1125 253.573 51.907 249.544 54.2474 249.145C64.4432 247.407 74.639 245.669 84.8348 243.932C85.6354 243.795 86.4851 243.633 87.0929 242.998C87.7807 242.279 87.9967 241.13 88.175 240.061C89.6511 231.217 90.7146 220.673 85.2445 214.436C80.7111 209.267 73.556 209.445 67.3969 210.887C61.2379 212.329 54.8904 214.702 48.8205 212.798C42.7507 210.894 37.6746 202.309 40.9468 195.931C43.1384 191.66 40.6672 185.963 37.2866 182.987C33.906 180.012 29.6989 178.546 26.4221 175.41C23.1454 172.274 21.0658 166.223 23.6758 162.299C24.8237 160.573 26.621 159.663 28.3844 159.001C34.2203 156.809 40.7277 156.642 46.3532 159.51C51.9787 162.378 56.547 168.524 57.4625 175.728C58.2083 181.597 56.7911 188.425 60.0498 192.917C64.3102 198.791 72.1845 195.496 78.7023 195.426C85.3686 195.353 91.9606 199.561 95.5992 206.212C99.2378 212.863 99.8063 221.743 97.0563 228.973C104.8 219.593 115.229 212.397 126.268 212.887C136.464 213.34 145.832 220.322 152.652 229.359C159.471 238.395 164.123 249.4 168.684 260.267C170.384 264.315 174.695 266.509 178.327 265.175C181.959 263.84 184.482 259.135 183.969 254.651C187.135 255.472 187.465 260.567 187.562 264.423C187.767 272.524 190.231 280.521 194.474 286.858C195.894 283.741 196.977 280.407 197.688 276.963C200.785 281.202 201.941 287.339 200.661 292.747C199.381 298.155 195.704 302.669 191.203 304.359C188.808 305.258 185.879 305.69 184.691 308.324C189.182 317.688 193.045 327.478 196.231 337.572C197.939 342.984 199.172 349.949 195.576 353.835C191.419 350.18 189.056 344.384 186.85 338.82C183.41 330.14 179.969 321.461 176.528 312.782" fill="white"/>
<path fill-rule="evenodd" clip-rule="evenodd" d="M186.547 258.681C185.643 269.191 188.947 280.104 195.275 287.51C197.531 285.889 198.974 282.777 198.924 279.64C201.295 284.282 199.967 290.577 197.018 294.724C194.07 298.871 189.839 301.357 185.734 303.73C183.382 305.089 180.94 306.476 178.326 306.569C174.339 306.711 170.767 303.856 167.506 301.119L157.941 293.089C162.883 304.069 174.132 310.463 184.41 308.134C191.557 320.072 195.934 334.337 196.932 348.95L195.011 344.723C195.003 344.701 194.994 344.679 194.984 344.656C194.972 344.627 194.957 344.598 194.941 344.57L195.011 344.723C195.287 345.534 194.207 346.43 193.48 346.011C192.707 345.565 192.415 344.457 192.186 343.47C189.372 331.322 184.329 319.912 177.513 310.272L187.835 336.309C190.04 341.874 192.403 347.67 196.56 351.325C200.156 347.438 198.923 340.474 197.215 335.061C194.029 324.968 190.166 315.178 185.675 305.814C186.64 303.675 188.753 302.988 190.795 302.324C191.268 302.17 191.737 302.018 192.187 301.849C196.688 300.159 200.365 295.645 201.645 290.236C202.925 284.828 201.77 278.692 198.672 274.453C197.961 277.896 196.878 281.231 195.458 284.348C191.215 278.011 188.751 270.014 188.546 261.913C188.449 258.057 188.119 252.962 184.954 252.141C185.466 256.625 182.943 261.33 179.311 262.664C175.679 263.999 171.368 261.805 169.669 257.756C165.107 246.89 160.455 235.885 153.636 226.848C146.817 217.812 137.448 210.829 127.252 210.377C116.213 209.887 105.784 217.083 98.0406 226.463C100.791 219.232 100.222 210.353 96.5835 203.702C92.9449 197.051 86.3529 192.843 79.6866 192.915C77.9957 192.934 76.2134 193.169 74.4267 193.405C69.3263 194.078 64.1892 194.757 61.0341 190.407C58.8057 187.335 58.7638 183.171 58.7216 178.968C58.7021 177.025 58.6825 175.074 58.4467 173.218C57.5313 166.014 52.963 159.867 47.3375 157C41.712 154.132 35.2046 154.299 29.3687 156.491C27.6053 157.153 25.808 158.062 24.6601 159.788C22.0501 163.712 24.1297 169.764 27.4064 172.9C29.1309 174.55 31.1132 175.738 33.097 176.927C34.8826 177.997 36.6695 179.068 38.2709 180.477C41.6515 183.453 44.1227 189.15 41.9311 193.421C38.6589 199.799 43.735 208.384 49.8048 210.288C54.8224 211.862 60.0298 210.513 65.1636 209.184C66.2402 208.905 67.3135 208.627 68.3812 208.377C74.5402 206.935 81.6954 206.757 86.2288 211.926C91.6989 218.163 90.6353 228.706 89.1593 237.551C88.981 238.62 88.765 239.769 88.0772 240.488C87.4694 241.123 86.6197 241.285 85.8191 241.422L55.2316 246.634C52.8913 247.033 52.0968 251.063 53.4721 253.352C54.8473 255.642 57.4219 256.398 59.7849 256.487C63.3979 256.624 66.9235 255.607 70.4558 254.588C72.2476 254.072 74.041 253.555 75.8485 253.187C81.2193 252.095 87.4532 252.696 91.0295 257.59C96.78 265.459 107.694 267.001 114.832 260.953C120.348 272.701 129.947 280.18 139.59 287.691C148.272 294.454 156.988 301.244 162.789 311.202C169.183 322.179 171.302 335.789 173.267 348.941C175.562 348.902 177.266 345.458 176.182 343.05L174.026 346.436C173.23 325.706 164.337 305.617 150.425 293.117C146.98 290.022 143.202 287.308 139.432 284.6L139.432 284.6C131.148 278.65 122.904 272.729 118.317 262.845C117.904 261.955 117.519 261.013 117.452 259.999C117.368 258.716 117.797 257.48 118.211 256.286L118.27 256.116C119.924 251.34 121.079 246.1 120.267 241.025C119.455 235.951 116.246 231.153 111.955 230.389C119.218 235.921 120.707 249.648 114.863 257.194C109.018 264.741 97.4059 264.085 92.1876 255.913C88.0055 249.365 79.6428 250.166 72.9115 252.024C66.1801 253.881 58.2532 255.825 53.0533 250.407C64.1782 246.765 75.626 244.523 87.1445 243.729C89.8885 243.54 90.9648 239.465 91.3344 236.222C91.9025 231.237 92.4707 226.172 91.8483 221.196C91.2258 216.221 89.2395 211.257 85.6932 208.522C81.4346 205.238 75.9369 205.747 70.8906 206.376L57.48 208.046C54.5905 208.406 51.6208 208.759 48.8192 207.843C46.0176 206.927 43.3816 204.44 42.8444 201.04C42.5051 198.893 43.0214 196.779 43.5419 194.647C43.9166 193.113 44.2935 191.569 44.3549 189.998C44.5299 185.525 42.1026 181.426 39.1531 178.647C37.346 176.944 35.3324 175.604 33.3169 174.263C32.0428 173.415 30.768 172.566 29.5441 171.626C27.2403 169.855 24.8766 166.993 25.5171 163.819C25.9268 161.789 27.4698 160.381 29.0211 159.408C34.2588 156.12 40.8057 155.973 46.1443 159.021C51.4829 162.07 55.4843 168.241 56.6099 175.162C56.8876 176.869 57.0137 178.652 57.1397 180.432C57.431 184.548 57.7209 188.645 59.8811 191.738C62.4615 195.433 66.9212 196.363 70.9524 196.135C72.3345 196.056 73.7165 195.872 75.0973 195.688C77.7439 195.335 80.3863 194.982 83.0175 195.377C91.8652 196.704 98.8362 207.664 97.5099 218.164C97.4366 218.744 97.3422 219.33 97.2476 219.917L97.2475 219.917L97.2475 219.917C96.9099 222.012 96.569 224.127 97.1699 226.094C97.9393 228.613 101.305 229.954 102.371 227.594C107.149 217.016 118.107 211.686 128.127 213.083C138.146 214.48 147.113 221.663 153.691 230.769C160.269 239.875 164.743 250.833 168.824 261.817C170.262 265.686 174.542 267.087 177.961 265.936C181.38 264.785 184.093 261.741 186.547 258.681ZM169.254 278.418L169.254 278.418C170.09 280.367 171.62 283.932 173.636 285.016C173.547 286.026 172.213 285.485 171.658 284.713C170.081 282.52 168.408 279.996 168.592 277.117C168.689 277.101 168.914 277.626 169.254 278.418ZM173.352 294.431C174.393 296.247 168.159 297.151 166.087 295.566C166.452 295.483 166.933 295.527 167.465 295.577C168.097 295.635 168.801 295.7 169.47 295.566C170.45 295.37 171.395 295.012 172.109 294.742C172.802 294.479 173.277 294.3 173.352 294.431ZM171.855 287.682C169.374 288.189 166.326 284.254 166.326 280.553C167.041 283.289 169.582 285.46 170.986 286.659C171.7 287.269 172.12 287.628 171.855 287.682ZM180.746 303.158C177.441 303.158 175.943 296.522 177.441 296.096C177.799 295.903 177.816 296.497 177.841 297.374C177.867 298.297 177.902 299.533 178.353 300.496C178.854 301.565 179.913 302.28 180.532 302.697C181 303.012 181.215 303.158 180.746 303.158ZM184.428 294.123C185.153 294.598 185.815 295.336 186.003 296.297C186.191 297.258 185.74 298.422 184.929 298.622C184.675 298.178 184.812 297.895 184.958 297.597C185.171 297.159 185.401 296.688 184.428 295.621C184.018 295.172 183.541 294.977 183.207 294.84C182.949 294.734 182.776 294.663 182.783 294.538C182.825 293.739 183.839 293.737 184.428 294.123ZM178.242 285.476C178.078 285.612 177.966 285.705 178.062 285.811C178.361 286.142 178.712 286.3 179.063 286.06C179.331 285.877 179.467 285.505 179.53 285.146C179.883 283.135 178.1 281.059 176.419 281.524C176.568 281.992 176.854 282.141 177.2 282.323C177.6 282.533 178.081 282.785 178.528 283.618C179.131 284.741 178.578 285.198 178.242 285.476ZM177.677 304.427C175.731 303.752 173.806 298.28 174.842 297.866C175.488 297.607 175.485 297.649 175.447 298.082C175.413 298.478 175.35 299.203 175.731 300.326C176.203 301.72 176.866 302.852 177.287 303.572C177.576 304.066 177.752 304.367 177.677 304.427ZM623.399 180.198C619.221 180.809 615.929 184.821 613.852 189.18C612.848 191.288 612.045 193.519 611.241 195.749L611.241 195.749L611.241 195.75C610.383 198.132 609.525 200.514 608.423 202.745C603.166 213.389 593.178 219.208 583.606 223.963C581.955 224.783 579.064 224.397 579.579 222.358C595.25 218.818 608.741 204.045 613.014 185.747C613.517 183.591 611.162 181.772 609.345 182.342C607.701 182.858 606.53 184.49 605.474 186.11L605.143 186.62C596.414 200.138 583.883 211.567 569.575 212.305C568.562 212.357 567.113 211.621 567.559 210.537C578.156 210.114 588.146 203.887 596.015 195.425C603.884 186.963 609.885 176.357 615.499 165.647C616.367 163.99 618.452 164.344 620.004 164.974C624.767 166.908 629.337 169.517 633.586 172.728C635.867 174.452 634.06 179.051 631.467 179.953C629.977 180.471 628.42 180.345 626.857 180.219C625.7 180.125 624.539 180.031 623.399 180.198ZM619.329 169.65L618.963 169.518C617.848 169.137 616.603 168.926 615.706 169.75C615.358 170.069 615.109 170.51 614.881 170.96L611.898 176.947C613.464 177.378 614.964 178.142 616.308 179.191C617.405 180.049 618.918 180.081 620.041 179.272C621.164 178.464 621.842 176.853 621.714 175.298C621.666 174.718 622.465 174.56 622.798 174.987C623.047 175.306 623.122 175.743 623.196 176.179L623.196 176.18L623.197 176.182C623.222 176.328 623.247 176.475 623.278 176.616C623.404 177.18 623.79 177.787 624.27 177.671C624.756 177.12 625.023 176.305 624.976 175.507C625.15 174.685 626.228 175.418 626.395 176.243C626.562 177.068 626.875 178.241 627.563 178.02C628.574 177.723 628.892 176.045 628.399 174.952C627.907 173.859 626.915 173.241 625.969 172.72C623.814 171.53 621.594 170.504 619.329 169.65ZM610.265 179.383C611.821 181.249 614.087 182.242 616.288 182.023C614.939 180 612.644 178.943 610.502 179.334L610.265 179.383ZM498.78 365.2C491.287 367.722 482.824 365.732 476.699 360.008C471.154 363.468 465.423 366.824 459.229 367.906C453.035 368.989 446.216 367.469 441.739 362.26C442.479 364.169 443.233 366.149 443.256 368.251C443.28 370.353 442.367 372.622 440.694 373.297C437.935 374.41 435.523 370.898 434.091 367.877C433.307 370.203 434.116 372.82 434.902 375.365C435.8 378.268 436.668 381.077 435.108 383.251C433.484 385.515 430.402 384.935 428.166 383.6C419.792 378.598 415.857 366.01 417.672 355.066C419.486 344.122 426.095 334.958 433.965 328.906C428.622 324.243 424.713 317.3 423.121 309.644C424.209 311.316 425.016 313.258 425.823 315.201C426.631 317.144 427.438 319.086 428.526 320.758C429.559 322.345 430.873 323.661 432.187 324.978C433.501 326.294 434.815 327.61 435.848 329.197C436.112 329.602 436.339 330.283 435.965 330.536C428.42 335.638 421.966 343.768 419.825 353.779C417.684 363.79 420.663 375.608 428.052 381.024C429.354 381.979 430.907 382.745 432.386 382.28C433.864 381.815 434.973 379.605 434.124 378.091C431.728 373.818 431.437 367.995 433.39 363.414L439.582 371.68C441.005 371.244 441.357 368.964 440.978 367.273C440.858 366.737 440.693 366.208 440.529 365.68C440.176 364.542 439.823 363.409 439.918 362.219C440.057 360.477 441.966 358.918 442.975 360.191C447.002 365.272 453.47 366.713 459.262 365.595C465.053 364.476 470.358 361.167 475.546 357.905L481.669 354.055C481.227 356.158 479.796 357.923 478.046 358.523C483.957 363.578 491.86 365.167 498.838 362.702C500.039 362.277 501.273 361.69 502.053 360.52C502.832 359.351 502.958 357.45 502.017 356.464C501.902 356.344 501.773 356.238 501.645 356.133C501.393 355.926 501.143 355.72 500.999 355.405C500.781 354.93 501.118 354.131 501.535 354.349C503.892 354.154 505.346 357.924 504.385 360.495C503.425 363.066 501.054 364.434 498.78 365.2ZM456.947 327.887C455.601 327.372 454.09 328.477 453.505 330.01C452.92 331.543 453.086 333.344 453.529 334.943C453.669 333.139 453.862 331.779 454.436 330.594C454.683 330.082 455.448 329.6 456.121 329.176C456.991 328.628 457.706 328.178 456.947 327.887ZM455.806 323.355C457.77 322.772 459.988 323.673 461.244 325.562C462.5 327.451 462.727 330.228 461.8 332.37C461.578 332.05 461.526 331.47 461.46 330.742C461.265 328.593 460.953 325.158 455.806 323.355ZM454.103 339.963C453.481 340.887 455.645 343.327 459.03 341.644C459.657 341.332 459.145 341.297 458.339 341.24C457.603 341.189 456.623 341.121 456.038 340.81C455.543 340.547 455.29 340.126 455.1 339.811C454.819 339.344 454.677 339.11 454.103 339.963ZM460.961 343.052C463.13 341.765 461.769 345.538 457.232 345.075C456.822 345.034 456.287 344.846 456.292 344.355C456.293 344.182 456.677 344.142 457.273 344.08C458.2 343.984 459.641 343.835 460.961 343.052ZM447.578 335.892C448.394 336.841 449.583 336.866 450.375 336.684C450.858 336.573 451.095 336.059 450.653 335.892C450.549 335.853 450.377 335.821 450.171 335.782L450.171 335.782L450.17 335.782L450.17 335.782L450.17 335.782L450.17 335.782L450.169 335.782L450.169 335.782C449.698 335.693 449.048 335.571 448.612 335.258C448.332 335.056 448.172 334.369 448.035 333.78C447.894 333.174 447.777 332.672 447.578 332.907C447.186 333.372 446.762 334.943 447.578 335.892ZM448.302 339.103C448.697 339.819 447.192 339.573 446.869 339.103C446.545 338.634 446.226 336.866 446.768 336.866C446.925 336.866 446.979 337.145 447.044 337.478C447.103 337.786 447.172 338.141 447.339 338.367C447.664 338.805 447.881 338.871 448.041 338.918C448.149 338.951 448.231 338.975 448.302 339.103ZM515.996 335.548C516.807 337.478 515.387 339.642 514.018 341.057C508.454 346.809 501.804 351.064 494.705 353.414C502.356 353.476 509.973 349.577 515.199 342.924C517.631 339.828 519.187 334.016 516.048 332.014C519.773 330.545 524.182 327.477 523.613 322.855C523.41 321.204 522.562 319.782 521.74 318.432L521.251 317.633C516.168 309.362 509.951 300.617 501.428 300C506.334 296.724 512.177 301.377 516.501 305.661L517.769 306.91C523.494 312.514 529.484 317.846 536.275 321.349C543.568 325.112 551.955 326.616 559.521 323.713L580.694 315.589C584.779 313.98 589.592 310.955 589.221 305.901C589.016 303.117 586.883 300.723 584.536 300.645C582.19 300.568 579.948 302.817 579.614 305.583L579.153 301.283C578.018 300.127 576.207 301.117 575.294 302.524C574.948 303.057 574.66 303.645 574.373 304.232C573.901 305.196 573.431 306.155 572.712 306.855C570.213 309.289 566.892 307.289 563.911 305.186L562.052 303.864C556.752 300.157 550.472 299.589 544.271 299.028C542.931 298.907 541.596 298.787 540.275 298.635C531.63 297.64 523.109 295.133 515.07 291.218C522.442 298.415 532.074 299.623 541.79 300.842C546.686 301.456 551.604 302.073 556.265 303.46C559.961 304.561 564.047 306.804 564.954 311.21C566.272 317.609 559.888 322.565 554.378 323.163C545.366 324.142 536.585 319.579 528.934 313.756L528.073 313.092C525.304 310.927 522.62 308.599 519.937 306.271C515.015 302.001 510.098 297.735 504.665 294.492C510.277 294.828 514.374 289.991 518.56 285.049C520.818 282.384 523.101 279.689 525.661 277.759C533.186 272.086 542.792 273.378 551.647 275.2L553.039 275.491C550.956 263.481 545.869 252.233 538.594 243.552L551.095 272.813C537.933 267.592 522.148 274.116 514.534 287.923C520.411 264.311 534.392 243.714 552.549 231.918C558.399 234.524 563.341 239.174 568.275 243.816L568.275 243.817L568.276 243.817C569.868 245.315 571.46 246.813 573.081 248.241C579.723 254.091 587.801 259.049 595.934 257.308C601.782 256.055 606.702 251.527 611.073 246.685L611.776 245.898C616.981 240.022 621.819 233.686 626.237 226.96C631.072 219.599 637.014 210.86 644.808 211.957C646.185 212.151 647.523 212.662 648.856 213.171C650.698 213.875 652.532 214.575 654.443 214.429C657.737 214.177 660.765 208.911 658.18 206.467L644.908 193.924C643.61 192.699 642.114 191.402 640.471 191.656C639.304 191.836 638.333 192.773 637.432 193.674L634.451 196.653C627.502 203.622 620.637 210.735 614.608 218.815C614.218 219.339 613.825 219.87 613.43 220.405C608.542 227.018 603.238 234.193 595.978 234.71C588.896 235.215 582.944 229.127 577.504 223.564C577.231 223.284 576.959 223.006 576.688 222.73L575.674 221.707C569.906 215.943 563.738 210.746 557.254 206.187C551.522 202.157 545.166 198.527 538.526 199.078C530.757 199.721 524.204 205.906 518.592 212.405L517.743 213.397C514.99 216.618 511.697 220.098 507.91 219.41L507.608 219.362C503.794 218.845 500.217 221.663 497.341 224.818L496.893 225.318C489.375 233.857 483.838 244.843 481.045 256.757C464.646 251.529 446.664 253.685 431.47 262.702C427.641 264.974 423.909 267.744 421.244 271.728C417.438 277.416 416.322 284.63 415.196 291.907C414.375 297.216 413.548 302.56 411.668 307.37C411.111 308.794 410.459 310.184 409.807 311.573L409.807 311.573C408.279 314.826 406.754 318.073 406.474 321.738C406.073 326.967 410.174 333.035 414.241 331.004C418.314 330.24 420.47 323.402 417.824 319.636C419.473 321.042 421.771 321.283 423.6 320.243L419.35 310.901C426.52 306.356 432.882 300.017 437.904 292.416C439.958 289.308 443.775 288.523 446.998 289.477C449.761 290.295 452.198 292.151 454.532 294.125L455.692 295.117C454.34 296.287 455.119 299.399 456.788 299.498C455.711 294.276 460.097 288.792 464.593 289.3C469.089 289.809 472.493 295.502 471.905 300.833C469.532 307.836 463.658 311.832 457.848 315.783C451.545 320.071 445.317 324.307 443.72 332.277C442.11 340.306 447.311 349.298 454.185 350.371C461.059 351.445 468.031 344.354 468.215 336.102C468.215 336.102 469.232 336.227 469.592 334.943C470.16 332.919 470.697 330.677 471.229 328.455L471.229 328.455C472.231 324.278 473.215 320.171 474.351 317.718C477.538 310.84 483.47 305.394 490.066 305.204C492.161 305.143 494.243 304.774 496.322 304.404L496.322 304.404C498.978 303.932 501.631 303.46 504.304 303.636C509.069 303.949 514.293 307.271 514.98 312.894C509.695 311.672 504.182 311.878 498.972 313.492L517.416 316.104C521.467 316.678 522.224 324.145 519.338 327.576C516.616 330.811 512.469 331.342 508.587 331.548L507.885 331.583C508.563 333.23 510.25 333.401 511.938 333.571C513.622 333.741 515.308 333.912 515.996 335.548ZM614.11 239.586C608.391 247.145 601.707 255.268 593.169 255.648C585.702 255.979 579.171 250.25 573.131 244.952L572.685 244.561L571.242 243.306C564.493 237.477 557.503 232.044 550.306 227.033C544.732 223.153 538.322 219.405 532.071 221.329L541.967 225.038C540.298 226.103 539.704 229.003 540.772 230.864C541.001 228.077 543.709 226.305 546.032 226.741C548.355 227.177 550.244 229.207 551.683 231.422C539.208 237.118 528.594 248.394 522.425 262.504C521.278 265.129 520.28 267.844 519.282 270.557L519.282 270.558C517.93 274.235 516.579 277.911 514.857 281.357C511.866 287.347 507.437 292.796 501.737 294.383C500.939 294.605 500.121 294.751 499.304 294.897C497.666 295.189 496.032 295.48 494.575 296.384C494.411 296.486 494.242 296.593 494.068 296.704C492.357 297.792 490.247 299.133 489.193 297.364C487.465 294.466 484.711 292.467 481.756 291.966C486.641 272.424 499.21 255.818 515.027 248.006C515.923 247.564 515.58 245.969 515.091 244.972L507.896 230.315C507.232 228.961 508.01 227.12 509.18 226.401C510.351 225.683 511.747 225.791 513.054 225.985C521.376 227.219 529.389 231.285 535.9 237.578C536.942 238.584 538.648 239.573 539.41 238.258C531.982 229.339 521.357 225.203 510.9 223.537C519.939 222.485 529.286 225.874 536.298 232.745L536.639 233.078C538.315 234.697 540.342 236.418 542.274 235.425C534.443 226.482 523.734 221.204 512.886 220.94C515.118 218.963 517.203 216.766 519.287 214.569L519.288 214.569C521.406 212.336 523.524 210.104 525.797 208.103C530.306 204.132 535.697 201.032 541.297 201.422C545.362 201.704 549.174 203.793 552.77 206.067C560.373 210.873 567.531 216.674 574.075 223.332C574.536 223.801 574.999 224.276 575.466 224.755L575.471 224.76L575.474 224.763C581.693 231.144 588.479 238.106 596.517 237.207C601.419 236.658 605.762 233.133 609.212 228.951C611.12 226.637 612.822 224.103 614.525 221.569L614.525 221.568C615.9 219.521 617.275 217.474 618.759 215.542C620.901 212.755 623.38 210.134 626.424 209.07C629.468 208.006 633.178 208.887 634.986 211.99L614.11 239.586ZM417.11 291.355C418.213 284.172 419.303 277.07 423.38 271.841C425.376 269.28 427.931 267.436 430.531 265.817C443.833 257.533 459.346 254.38 474.202 256.94C477.838 257.566 482.343 259.995 482.284 264.105C482.263 264.356 482.243 264.607 482.224 264.859C482.261 264.602 482.281 264.35 482.284 264.105C483.766 246.92 492.173 230.753 504.455 221.546C505.544 230.589 508.872 239.234 513.915 246.12C500.55 252.822 489.454 265.708 483.493 281.448L483.398 281.697C481.705 286.109 479.02 291.527 475.099 290.428L477.04 276.148C477.218 274.839 477.383 273.421 476.861 272.249C476.279 270.94 475.034 270.337 473.821 269.901L473.395 269.754C466.368 267.385 458.484 265.111 452.066 269.261C448.671 271.457 446.234 275.137 443.955 278.915L442.263 281.745C438.246 288.421 433.75 294.688 428.838 300.454C426.86 302.777 424.721 305.084 422.073 306.084C419.425 307.083 416.134 306.411 414.562 303.684C415.816 299.786 416.465 295.557 417.11 291.355ZM460.42 347C456.248 348.843 452.853 347.935 449.596 345.677C448.202 344.711 446.89 343.467 446.105 341.789C444.928 339.274 445.104 336.151 445.783 333.387C446.798 329.256 448.874 325.503 451.662 322.762C453.59 320.867 455.81 319.476 458.029 318.086L458.03 318.085C458.796 317.605 459.561 317.126 460.314 316.625C467.674 311.737 474.022 304.709 478.651 296.324C479.575 294.651 481.523 294.108 483.153 294.602C484.783 295.097 486.142 296.426 487.318 297.859C488.159 298.884 488.783 300.923 487.66 301.44C479.802 305.063 473.473 313.101 470.945 322.672C470.876 322.933 470.809 323.197 470.742 323.461C470.358 324.975 469.969 326.507 469.144 327.732C468.176 329.17 466.232 334.236 467.224 336.638C467.224 336.638 464.593 345.158 460.42 347ZM471.323 271.184C472.596 271.524 473.983 272.013 474.681 273.325C475.253 274.399 475.217 275.765 475.127 277.033C474.772 282.046 473.887 287.006 472.499 291.758C472.264 292.561 471.539 293.527 471.011 292.955C470.412 289.358 467.651 286.433 464.581 286.142C461.511 285.852 458.397 288.222 457.329 291.661C457.118 292.34 456.377 292.593 455.79 292.406C455.349 292.265 454.973 291.948 454.613 291.606L454.257 291.26C450.599 287.723 445.649 286.152 440.997 287.053C443.475 282.088 446.619 277.595 450.273 273.795C451.768 272.24 453.39 270.774 455.278 270.045C457.056 269.359 458.965 269.365 460.831 269.478C464.361 269.692 467.875 270.263 471.323 271.184ZM638.119 207.993C636.34 205.736 633.903 204.226 631.329 203.796L634.25 199.379C635.176 197.994 636.259 196.573 637.72 196.355C638.774 196.197 639.81 196.712 640.769 197.256C643.977 199.076 647.002 201.357 649.756 204.032C650.675 204.924 651.6 205.921 651.999 207.25C652.399 208.58 652.077 210.321 651.006 210.929C649.936 211.537 648.394 210.205 648.833 208.893L648.875 208.746C649.055 208 648.771 207.119 648.205 206.726L647.17 209.087C647.076 209.293 646.965 209.493 646.794 209.605C646.104 210.06 645.542 208.782 645.498 207.845L645.49 207.715C645.416 206.792 645.009 205.614 644.296 205.902C644.2 207.483 643.25 208.944 641.988 209.451C640.727 209.957 639.228 209.48 638.347 208.291L638.119 207.993ZM415.389 324.527L414.14 318.888C413.547 318.69 412.968 319.399 412.884 320.125C412.827 320.61 412.918 321.089 413.04 321.562L413.232 322.266C413.873 324.66 413.857 327.296 413.187 329.679C411.949 326.662 411.304 323.305 411.316 319.948C410.509 319.42 409.959 321.029 410.017 322.123L410.366 328.651C408.674 326.836 408.077 323.89 408.366 321.2C408.655 318.51 409.716 316.026 410.909 313.715C411.532 312.509 412.221 311.3 413.212 310.517C414.202 309.734 415.566 309.465 416.578 310.209C417.418 310.827 417.808 311.925 418.203 313.038C418.503 313.879 418.805 314.73 419.307 315.388C419.485 315.621 419.693 315.86 419.904 316.102C420.722 317.041 421.595 318.044 421.023 319.055C419.263 317.768 417.652 316.191 416.253 314.381C415.747 318.118 416.211 322.034 417.566 325.458C417.843 326.159 416.927 326.826 416.351 326.467C415.774 326.109 415.555 325.276 415.389 324.527ZM584.469 306.078C585.371 305.128 586.195 304.26 586.594 304.497C587.756 305.186 584.599 308.219 582.927 309.076C583.048 310.037 584.22 309.606 584.904 309.076C585.588 308.546 587.503 307.975 587.128 308.552C584.792 312.15 580.281 315.009 576.112 315.568C574.421 315.795 572.331 315.257 571.793 313.336C571.301 311.584 572.395 309.854 573.552 308.552L573.83 308.248C574.316 307.73 575.097 307.225 575.545 307.789C576.737 309.29 578.82 308.062 580.192 306.799C580.192 306.799 583.759 302.702 584.357 302.964C584.952 303.225 582.577 307.845 582.577 307.845C583.166 307.451 583.836 306.745 584.469 306.078ZM567.394 309.882C567.821 309.766 568.266 309.971 568.634 310.253C569.975 311.277 570.615 313.437 570.111 315.236C569.608 317.036 568.008 318.307 566.419 318.169C566.193 318.15 565.957 318.099 565.781 317.931C565.41 317.577 565.457 316.901 565.539 316.344L566.138 312.269C566.282 311.285 566.576 310.103 567.394 309.882ZM491.839 300.628C494.137 300.166 496.516 300.279 498.776 300.958C498.645 302.067 497.557 302.572 496.635 302.798C493.791 303.498 490.852 303.649 487.968 303.243C488.691 301.627 490.322 300.933 491.839 300.628ZM635.908 210.26L629.877 206.02C632.848 205.491 636.018 207.349 637.477 210.476C637.058 210.93 636.395 210.603 635.908 210.26ZM503.753 295.304C501.196 296.11 498.668 297.047 496.179 298.111C498.765 299.813 502.436 298.452 503.753 295.304ZM478.761 291.454C479.465 291.627 479.145 292.946 478.584 293.48C476.875 295.105 474.278 295.245 472.453 293.811L478.761 291.454ZM639.252 193.094C639.666 192.977 640.093 193.177 640.48 193.385C642.999 194.739 645.306 196.649 647.25 198.989L638.582 193.72C638.716 193.41 638.967 193.175 639.252 193.094ZM507.212 221.559L507.298 221.63C508.08 221.496 508.887 221.575 509.64 221.859C508.983 223.338 508.068 224.655 506.97 225.7C506.421 224.404 506.517 222.753 507.212 221.559ZM655.518 207.081L655.536 207.146C656.494 207.61 657.145 208.846 657.079 210.074C655.106 208.856 653.51 206.796 652.649 204.357C653.827 204.843 654.858 205.821 655.518 207.081ZM476.072 297.145L475.928 297.378C475.429 298.187 474.834 299.064 473.996 299.18C473.159 299.296 472.301 298.007 472.891 297.29C473.883 296.761 475.048 296.707 476.072 297.145ZM416.757 307.158C417.504 307.365 418.348 308.014 418.231 308.917C416.519 308.651 414.83 308.18 413.198 307.513C414.314 306.957 415.578 306.83 416.757 307.158ZM575.709 306.984C575.321 307.185 574.969 306.341 575.338 306.094C575.338 306.094 577.89 300.765 578.001 304.497C578.055 305.425 576.406 306.561 575.709 306.984ZM467.872 334.345C468.061 332.728 468.419 329.679 469.144 329.679C470.172 329.549 469.777 331.634 469.498 333.103L469.498 333.104C469.421 333.509 469.353 333.867 469.327 334.119C469.233 335.001 468.541 335.695 467.748 335.27C467.779 335.141 467.819 334.799 467.872 334.345ZM228.656 390.264C233.891 390.803 239.147 391.06 244.402 391.035C244.028 396.918 248.046 402.711 252.968 403.387C257.891 404.063 262.911 399.511 263.672 393.682C263.978 391.34 266.638 390.933 268.623 391.117L281.251 392.287C283.416 392.487 286.479 391.676 286.246 389.106L284.815 373.36C284.686 371.94 285.102 369.87 286.279 370.151C291.291 371.348 296.767 366.774 297.454 360.742C298.141 354.71 293.809 348.529 288.699 348.338C286.244 348.247 285.076 344.423 285.713 341.598C286.056 340.079 286.707 338.704 287.358 337.327C287.919 336.143 288.48 334.958 288.847 333.678C289.64 330.91 288.974 327.052 286.583 326.385C268.419 321.314 249.352 320.884 231.04 325.131L230.705 325.21C229.698 325.452 228.688 325.749 227.818 326.391C224.957 328.499 224.737 333.148 224.877 337.247L224.97 339.526C225.472 352.748 224.598 366.044 222.373 379.011L222.323 379.305C221.825 382.261 221.42 385.639 223.078 387.879C224.307 389.539 226.273 389.986 228.148 390.208L228.656 390.264ZM260.871 393.435C261.018 394.286 260.835 395.174 260.547 395.972L260.455 396.215C258.765 400.463 253.735 402.285 250.364 399.8C246.929 397.269 246.087 390.908 248.701 387.241C242.058 388.188 235.327 388.25 228.673 387.426C226.614 387.171 223.922 385.847 224.343 383.434C227.239 366.836 228.143 349.748 227.021 332.849C226.817 329.787 229.984 328.198 232.521 327.643C248.896 324.063 265.839 324.212 282.168 328.077C284.257 328.571 286.946 330.461 286.02 332.745C283.84 338.122 282.969 344.239 283.539 350.17C283.684 351.683 284.679 353.663 285.788 352.904C288.774 350.862 293.097 352.5 294.543 356.221C295.989 359.943 294.239 364.925 290.998 366.313C287.758 367.701 283.743 365.188 282.866 361.222C282.083 369.39 282.362 377.701 283.691 385.768C284.151 388.564 280.732 389.619 278.345 389.407L259.293 387.717C258.71 388.812 259.308 389.944 259.937 391.134C260.33 391.877 260.735 392.642 260.871 393.435ZM359.453 342.174L396.769 343.067L397.379 343.085C398.5 343.127 399.629 343.244 400.638 343.805C402.919 345.072 403.965 348.197 404.658 351.078C408.361 366.457 407.904 383.214 403.371 398.275L403.18 398.891C402.59 400.744 401.819 402.592 400.426 403.634C399.279 404.492 397.881 404.671 396.521 404.758L396.231 404.775C390.682 405.089 385.114 404.92 379.585 404.27C382.464 402.16 383.191 397.023 381.363 393.636C379.535 390.25 375.673 388.836 372.42 389.936C370.438 390.607 368.592 392.22 367.874 394.52C367.157 396.82 367.85 399.774 369.683 400.897C370.95 401.674 370.731 404.12 369.622 405.186C368.512 406.251 366.97 406.326 365.545 406.354L346.823 406.716C345.416 406.743 343.936 406.75 342.701 405.947C340.949 404.809 340.143 402.357 339.649 400.055C338.458 394.499 338.297 388.634 339.181 382.998C340.245 387.449 344.853 390.152 348.466 388.445C352.079 386.739 353.876 381.01 352.088 376.901C350.3 372.792 345.332 371.237 342.077 373.767L341.942 372.331C341.475 367.297 341.112 362.197 341.924 357.239C342.813 351.809 345.35 346.476 349.509 344.008C352.542 342.209 356.045 342.109 359.453 342.174ZM400.188 346.821C399.253 346.152 398.127 346.037 397.031 345.982L396.758 345.969C385.15 345.453 373.534 345.192 361.918 345.185L358.046 345.193C355.597 345.203 353.068 345.245 350.826 346.42C347.48 348.174 345.313 352.242 344.429 356.464C343.544 360.687 343.756 365.111 343.974 369.456C349.856 367.526 356.183 374.643 355.485 381.859C354.787 389.075 348.068 394.287 342.08 392.895C341.808 395.175 341.541 397.542 342.103 399.745C342.666 401.948 344.308 403.941 346.241 403.867L363.599 403.202C364.674 403.16 366.159 402.499 365.847 401.274C364.073 394.317 369.191 386.197 375.296 386.279C381.401 386.361 386.364 394.617 384.459 401.524C388.274 402.546 392.241 402.761 396.118 402.156C397.377 401.959 398.692 401.641 399.656 400.658C400.604 399.69 401.07 398.228 401.465 396.818C405.494 382.447 405.935 366.679 402.719 352.02C402.303 350.125 401.726 348.086 400.393 346.98L400.188 346.821ZM235.492 483.681C233.645 469.363 233.647 454.709 235.5 440.393L235.594 439.7C236.053 436.451 236.861 433.021 239.141 431.231C240.848 429.891 243.004 429.79 245.06 429.789L260.803 429.841C261.519 429.843 262.304 429.875 262.843 430.438C263.382 431 263.367 432.292 262.677 432.52C261.028 433.063 260.08 435.327 260.28 437.351C260.48 439.374 261.585 441.126 262.883 442.454C265.977 445.62 270.787 446.746 274.212 444.105C277.638 441.465 278.443 434.662 275.197 431.718C282.551 431.54 289.908 431.567 297.26 431.8L300.017 431.897C300.908 431.931 301.893 432.016 302.516 432.776C302.983 433.346 303.137 434.175 303.243 434.962C304.057 441.022 303.167 447.389 300.747 452.809C300.362 453.672 299.47 454.623 298.862 453.966C296.278 451.174 291.933 451.554 289.29 454.265C286.647 456.977 285.625 461.48 286.092 465.597C286.542 469.559 288.967 473.791 292.321 473.591C293.266 473.535 294.25 473.147 295.214 472.766C296.944 472.082 298.615 471.423 299.897 472.75L296.534 490.64C295.936 493.818 294.864 497.588 292.189 498.269C276.747 502.202 260.556 501.905 245.223 497.407L244.479 497.183C242.619 496.603 240.765 495.853 239.313 494.373C236.786 491.798 235.998 487.595 235.492 483.681ZM296.916 475.949C292.547 478.395 286.856 476.295 284.122 471.558C281.388 466.821 281.656 460.052 284.461 455.374C287.267 450.697 292.308 448.21 297.118 448.699L297.52 448.741C298.194 448.809 298.886 448.839 299.458 448.437C300.182 447.93 300.491 446.886 300.693 445.915C301.496 442.04 301.452 437.92 300.565 434.071L280.213 434.248C280.584 440.974 275.934 447.538 270.302 448.237C264.671 448.936 258.984 443.654 258.182 436.981L258.071 435.989C257.95 434.988 257.761 433.999 257.134 433.364C256.693 432.918 256.114 432.741 255.541 432.606L255.327 432.557C249.406 431.224 241.899 430.671 238.791 436.819C237.733 438.912 237.449 441.416 237.234 443.846C235.997 457.795 236.291 471.935 238.106 485.794L238.194 486.443C238.49 488.505 238.952 490.623 240.241 492.007C241.127 492.959 242.291 493.43 243.445 493.818L243.733 493.913C258.5 498.748 274.22 499.394 289.232 495.791L290.066 495.586C290.804 495.401 291.571 495.188 292.151 494.614C292.907 493.866 293.197 492.66 293.449 491.529L296.916 475.949ZM406.744 511.396C406.744 511.396 406.828 508.608 407.124 507.692C407.658 506.037 409.232 503.685 409.232 503.685C409.122 504.321 408.969 505.002 408.812 505.704L408.811 505.705L408.811 505.706C408.27 508.116 407.672 510.777 408.581 512.747C409.281 514.265 419.535 522.266 423.059 524.14C438.129 532.159 453.275 539.415 468.492 546.706L468.493 546.706L468.493 546.706L468.494 546.707L468.495 546.707L468.496 546.708L468.497 546.708L468.498 546.709L468.499 546.709L468.5 546.71L468.501 546.71L468.52 546.719C474.734 549.696 480.959 552.679 487.196 555.722C476.469 554.165 466.592 548.218 456.968 542.366C454.891 556.088 461.313 569.92 469.977 579.3C476.286 586.13 483.712 591.193 491.137 596.256L491.137 596.256L491.138 596.256L491.138 596.256L491.138 596.257L491.138 596.257L491.138 596.257L491.139 596.257L491.139 596.257L491.139 596.257L491.139 596.257C493.91 598.147 496.681 600.036 499.394 602.017L500.391 602.753C510.017 609.927 519.224 618.984 523.474 631.476C524.254 633.767 526.647 635.072 528.613 634.277C530.58 633.482 531.811 630.713 531.258 628.33C533.316 630.34 532.128 634.834 529.635 635.945C527.142 637.056 524.283 635.549 522.443 633.258C521.057 631.533 520.089 629.425 519.123 627.319L519.122 627.318L519.122 627.317L519.121 627.316L519.121 627.315C518.805 626.627 518.489 625.94 518.159 625.266C512.217 613.136 501.72 605.604 491.306 598.709L486.417 595.487C475.116 587.974 463.537 578.948 458.697 564.726C441.125 568.045 422.833 565.794 406.203 558.264C402.646 556.654 399.163 554.807 395.682 552.962L395.681 552.961L395.681 552.961C390.135 550.021 384.594 547.083 378.764 545.105C375.515 544.003 371.038 543.885 369.822 547.636C369.822 547.635 369.82 547.638 369.817 547.645L369.817 547.645C369.781 547.719 369.55 548.202 368.514 548.307C368.028 548.357 367.582 547.342 367.444 546.67C367.325 546.482 367.285 545.95 367.285 544.86C367.285 544.272 368.291 541.702 370.184 540.113C371.501 539.008 372.983 538.606 373.759 538.396C374.109 538.302 374.316 538.246 374.299 538.182C374.259 538.034 372.912 537.618 371.689 538.324C370.745 538.87 369.851 539.59 369.029 540.252L369.029 540.252L369.028 540.253C367.757 541.277 366.658 542.162 365.813 542.046C364.669 541.888 363.857 541.252 363.844 539.881C363.831 538.509 364.137 536.842 365.026 535.98C366.925 534.14 369.376 533.125 371.825 533.167C372.354 533.176 372.94 533.265 373.285 533.743C373.63 534.22 373.46 535.173 372.931 535.201C369.757 535.371 366.088 536.004 364.852 539.881C364.493 541.009 366.764 541.19 367.642 540.589C368.152 540.239 368.59 539.77 369.028 539.3L369.029 539.299C369.345 538.96 369.663 538.62 370.008 538.324C371.04 537.44 372.321 536.978 373.592 537.032C374.104 537.053 374.668 537.194 374.97 537.687C375.272 538.18 375.059 539.076 374.547 539.086C371.256 539.149 368.253 542.545 368.028 546.454C368.04 546.594 368.131 547.24 368.514 547.394C368.962 547.573 369.456 547.138 369.476 547.095C371.19 543.453 374.318 541.019 377.68 542.238C378.951 542.699 380.174 543.4 381.392 544.099C383.523 545.32 385.636 546.533 387.959 546.43L386.565 537.629C380.913 531.461 372.396 529.286 365.117 532.153C364.338 532.46 363.497 532.905 363.179 533.806C362.861 534.706 363.559 536.015 364.325 535.666C363.12 536.993 361.083 534.74 361.542 532.864C362 530.987 363.729 530.022 365.318 529.531C374.232 526.772 383.118 531.581 391.704 536.227L391.705 536.228L391.705 536.228L391.707 536.229L391.71 536.231L391.712 536.231C393.303 537.092 394.884 537.948 396.453 538.749C413.937 547.671 433.691 550.167 452.359 545.812C451.549 548.45 448.788 549.248 446.444 549.562C429.817 551.788 412.738 549.064 397.189 541.705C395.29 544.578 396.195 549.04 398.356 551.637C400.518 554.234 403.575 555.414 406.517 556.46C423.003 562.327 440.481 566.813 457.327 562.642L454.597 543.623L454.542 543.277C454.406 542.518 454.158 541.733 453.563 541.492L453.412 541.431C431.82 532.701 415.364 526.047 393.997 501.797C393.955 501.748 393.913 501.698 393.872 501.647C393.715 508.936 391.773 510.539 383.678 508.553C366.014 504.218 347.93 501.948 330.102 504.931C331.45 496.998 333.139 489.147 335.159 481.419C329.358 483.648 322.51 477.318 322.885 470.075C323.26 462.831 330.709 457.551 336.236 460.611C338.135 455.396 338.255 449.298 336.565 443.982C335.754 441.431 338.986 439.96 341.277 439.959L353.933 439.956C355.702 439.955 358.169 438.977 357.729 436.937C356.687 432.099 359.481 426.571 363.56 425.402C367.564 424.254 372.072 427.519 373.107 432.25L373.161 432.514C374.121 437.595 379.528 439.209 383.901 439.109L386.078 439.047C389.861 438.952 393.804 439.098 396.336 442.249C399.364 446.017 398.687 452.017 397.689 457.132L397.622 457.472C397.135 459.916 396.426 461.902 395.712 463.9C394.352 467.705 392.977 471.552 393.099 478.69C393.149 481.599 393.237 484.27 393.337 486.715C393.688 484.998 393.997 483.863 393.997 483.863C393.997 483.863 435.248 520.432 460.725 525.396C463.778 522.185 462.016 515.927 458.941 512.747C457.645 511.406 456.17 510.323 454.698 509.242L454.698 509.242C452.678 507.758 450.665 506.28 449.132 504.149C446.087 499.916 445.542 494.083 445.003 488.3C444.416 482.012 443.835 475.782 440.05 471.73C439.712 471.368 439.352 471.03 438.992 470.692C438.182 469.931 437.372 469.171 436.82 468.143C435.455 465.603 436.126 462.067 437.779 459.781C439.432 457.495 441.85 456.219 444.241 455.225C449.207 453.161 454.65 452.008 459.721 453.671C464.791 455.334 469.333 460.361 469.831 466.594C470.792 464.115 472.904 462.323 475.187 462.05L471.874 466.243L476.066 466.342L470.297 470.178C473.874 478.054 473.295 487.768 471.002 496.295C470.721 497.338 470.416 498.382 470.109 499.427L470.109 499.428L470.109 499.428L470.109 499.429L470.109 499.429L470.109 499.429L470.109 499.429L470.109 499.43L470.109 499.43L470.109 499.43L470.109 499.43C468.883 503.615 467.648 507.834 467.965 512.202C468.354 517.572 472.359 523.058 476.737 521.959L476.956 521.898C482.219 520.315 487.981 521.232 492.71 524.404C498.224 528.102 501.978 534.374 505.693 540.581L505.694 540.582C506.556 542.023 507.415 543.459 508.295 544.86C512.417 551.424 517.296 557.528 523.394 561.331C529.492 565.134 536.97 566.389 543.323 563.232C544.49 562.651 545.613 561.93 546.733 561.21L546.735 561.209C548.638 559.986 550.536 558.766 552.642 558.246C555.986 557.421 560.245 559.37 560.642 563.409C558.912 559.967 554.813 559.357 551.588 560.517C549.768 561.172 548.089 562.243 546.408 563.315C545.11 564.142 543.811 564.971 542.445 565.609C535.604 568.807 527.637 566.869 521.338 562.359C515.237 557.99 510.458 551.466 506.146 544.707L505.73 544.052C505.29 543.356 504.852 542.656 504.414 541.955C501.383 537.104 498.329 532.218 494.327 528.528C489.839 524.389 483.81 521.943 478.407 523.929L478.077 524.057C472.907 526.141 467.432 520.253 466.502 513.85C465.572 507.447 467.764 501.049 469.91 495.074C472.123 488.911 468.059 481.72 462.935 478.942C458.181 476.364 452.471 476.423 447.755 479.097C446.227 479.963 445.951 482.351 446.002 484.392L446.009 484.617C446.274 491.822 447.89 499.395 452.307 504.33C453.621 505.797 455.139 506.982 456.653 508.165L456.654 508.165L456.654 508.165C458.549 509.645 460.44 511.121 461.922 513.143C464.587 516.782 464.997 523.596 461.294 525.564C467.648 526.93 473.934 528.738 480.11 530.977C446.881 526.93 416.329 508.269 394.394 485.73C393.945 486.774 393.629 487.877 393.436 489.01C393.488 490.139 393.54 491.216 393.589 492.24C393.659 493.686 393.724 495.029 393.775 496.272C394.831 500.409 397.299 504.056 400.688 505.66C400.42 502.754 401.242 499.729 402.891 497.562C401.821 500.409 400.125 505.869 406.744 511.396ZM457.784 455.701C454.827 455.046 451.822 454.697 448.814 454.66C448.61 455.11 448.533 455.641 448.597 456.147C451.951 456.479 455.253 457.531 458.298 459.237C457.025 460.752 454.923 459.845 453.215 459.108L453.115 459.065C450.196 457.807 446.992 457.502 443.943 458.194C442.388 458.546 440.833 459.18 439.635 460.412C438.438 461.645 437.654 463.563 437.922 465.42C438.263 467.793 440.137 469.414 442.008 470.327C446.646 472.589 452.205 471.951 456.395 468.677C456.734 468.411 457.213 468.854 457.233 469.338C457.253 469.821 456.979 470.247 456.691 470.589C455.021 472.568 452.537 473.198 450.185 473.361C449.498 473.409 448.807 473.425 448.116 473.441C446.442 473.48 444.769 473.518 443.152 474.007C443.37 475.594 445.036 476.141 446.384 476.257C451.535 476.702 456.761 475.877 461.637 473.848C462.857 473.34 463.98 474.796 464.7 476.076L469.952 485.407C471.677 483.474 471.574 480.132 470.76 477.483C470.442 476.447 470.038 475.449 469.633 474.452C469.003 472.897 468.375 471.346 468.079 469.664C467.916 468.737 467.857 467.786 467.798 466.836V466.836C467.716 465.502 467.634 464.172 467.263 462.917C465.957 458.498 461.652 456.559 457.784 455.701ZM394.339 540.883L389.572 537.622C389.043 537.261 388.068 537.199 388.122 537.923C387.959 540.853 388.16 544.442 389.742 546.884C390.738 548.422 391.458 549.21 394.979 550.251L394.72 542.046C394.706 541.611 394.656 541.1 394.339 540.883ZM466.933 496.246C467.513 495.846 467.882 495.133 468.227 494.449C468.844 493.226 469.48 491.931 469.507 490.504C469.535 489.078 468.707 487.521 467.509 487.465C466.913 487.437 466.347 487.775 465.86 488.185C464.78 489.095 463.947 490.413 463.511 491.901C464.062 492.847 465.309 492.002 465.864 491.059C466.419 490.116 467.241 488.924 468.124 489.395C467.541 491.801 466.511 494.051 465.128 495.937C465.498 496.603 466.353 496.647 466.933 496.246ZM476.47 565.553C475.144 563.047 473.713 560.34 471.35 559.525C476.591 571.268 484.714 581.163 494.455 587.67C497.856 589.942 501.443 591.808 505.027 593.672C510.025 596.272 515.016 598.868 519.487 602.557C525.088 607.18 529.72 613.452 532.854 620.657C531.622 610.384 524.407 602.52 516.704 597.662C513.217 595.463 509.554 593.691 505.892 591.919C501.465 589.777 497.041 587.637 492.935 584.746C486.389 580.137 480.78 573.659 476.712 566.009L476.592 565.783L476.47 565.553ZM492.932 569.027L493.078 569.414C493.723 571.191 494.17 573.424 492.959 574.627C491.994 575.586 490.531 575.22 489.393 574.584C486.932 573.208 484.898 570.779 483.75 567.845C485.187 567.506 486.533 566.646 487.565 565.408C488.422 564.38 489.938 564.588 490.903 565.469C491.869 566.349 492.418 567.715 492.932 569.027ZM492.15 573.232C493.39 570.582 490.861 566.673 489.626 566.419C489.089 566.309 488.534 566.943 487.938 567.623C487.327 568.322 486.672 569.07 485.948 569.113C485.948 569.113 490.911 575.882 492.15 573.232ZM554.678 580.852C584.782 579.674 614.171 562.213 633.063 534.282C634.04 532.836 635.977 532.812 637.336 533.72C638.695 534.629 639.614 536.225 640.483 537.766C641.43 537.601 641.458 535.851 640.806 535.017C640.484 534.605 640.079 534.307 639.675 534.008C639.26 533.701 638.845 533.394 638.519 532.965C637.204 531.232 637.907 528.504 638.677 526.355L642.112 516.78C642.572 515.497 643.292 514 644.463 514.02C645.32 514.034 645.98 514.887 646.524 515.676C652.451 524.273 657.949 533.289 662.98 542.661C659.879 543.233 656.897 541.413 653.955 539.619C650.67 537.615 647.435 535.641 644.14 537.063C641.269 538.302 639.578 541.744 638.057 544.897C633.085 555.212 627.389 565.147 620.174 573.371C603.417 592.472 580.035 600.739 557.256 605.966C571.346 612.316 586.868 614.097 601.717 611.068C610.215 609.335 618.688 605.921 625.311 599.349C627.993 596.688 630.319 593.563 632.634 590.452L649.692 567.526C650.691 566.184 652.534 567.472 653.465 568.882C654.395 570.292 655.658 572.05 657.076 571.449C656.061 568.741 654.298 566.439 652.126 564.987C651.997 561.753 651.916 558.289 653.36 555.546C654.804 552.803 658.404 551.467 660.278 553.813C666.42 561.506 672.306 569.49 677.916 577.739C674.624 578.356 671.496 576.669 668.391 574.995L668.391 574.994C667.431 574.477 666.474 573.961 665.515 573.514C661.451 571.622 655.756 571.662 653.903 576.365C648.836 589.226 643.57 602.417 634.872 612.141C620.345 628.382 599.119 632.047 579.318 634.721C570.537 635.907 561.516 637.032 552.966 634.369C546.743 632.432 541.08 628.577 535.501 624.763L531.075 621.737C529.772 622.126 530.818 624.477 531.975 625.289C539.387 630.493 547.026 635.796 555.526 637.391C557.691 637.797 559.884 637.955 562.075 638.053C582.245 638.956 602.567 634.743 621.293 625.777C629.103 622.038 637.051 617.038 641.339 608.415L656.452 578.027C657.031 576.863 657.668 575.634 658.695 575.056C659.946 574.352 661.418 574.801 662.747 575.261L676.913 580.16C678.361 580.66 679.706 578.639 679.555 576.854C679.404 575.068 678.321 573.62 677.292 572.309L664.228 555.66C662.504 553.464 660.652 551.172 658.218 550.372C655.784 549.573 652.655 550.98 652.179 553.933C650.774 562.647 645.774 569.828 640.949 576.591C633.48 587.057 625.704 597.813 615.337 603.836C600.471 612.473 582.905 609.964 566.628 606.456L577.182 602.795C582.406 600.984 587.639 599.168 592.703 596.799C612.349 587.608 629.083 569.873 639.028 547.705C640.754 543.858 642.784 539.411 646.39 538.638C649.353 538.004 651.88 540.087 654.463 542.217C655.998 543.483 657.554 544.765 659.233 545.503C661.709 546.591 665.552 545.043 664.969 541.977C664.838 541.284 664.485 540.685 664.14 540.106L650.701 517.548C648.836 514.419 646.042 510.883 642.974 512.058C640.509 513.002 639.585 516.389 638.769 519.377L638.769 519.378C638.738 519.494 638.706 519.608 638.675 519.722L638.623 519.911C634.798 533.789 624.512 543.483 614.75 552.329C610.479 556.199 606.196 560.078 601.587 563.352C588.122 572.917 572.332 576.966 556.686 578.176C552.266 578.518 549.488 583.455 546.945 587.974C546.748 588.323 546.554 588.669 546.359 589.011C546.255 589.195 546.15 589.378 546.045 589.56C541.691 597.114 535.49 603.141 528.401 606.708C529.587 608.269 531.746 607.334 533.245 606.218C540.358 600.925 546.392 593.592 550.69 585.017C551.638 583.125 552.829 580.924 554.678 580.852ZM460.225 499.882C459.533 501.687 457.989 502.987 456.33 503.162C454.67 503.338 452.958 502.383 452.01 500.752C451.661 500.153 451.664 498.982 452.274 499.045C453.543 501.053 456.191 501.572 457.934 500.155C458.688 499.541 459.997 498.828 460.225 499.882ZM446.881 486.766C447.032 485.254 448.102 483.94 449.367 483.716C450.632 483.491 451.978 484.376 452.492 485.769C451.568 485.769 450.948 485.57 450.432 485.404C449.382 485.067 448.762 484.868 446.881 486.766ZM456.683 495.188L455.244 495.922L455.161 495.865C454.787 496.711 453.689 495.754 453.604 494.803C453.598 494.732 453.592 494.659 453.588 494.584C453.585 494.526 453.582 494.467 453.579 494.407C453.576 494.335 453.573 494.262 453.57 494.189V494.189V494.189C453.538 493.384 453.505 492.547 452.945 492.185C452.247 493.383 451.927 494.96 452.334 496.336C452.74 497.712 453.977 498.756 455.182 498.497C456.388 498.238 457.254 496.478 456.683 495.188ZM458.411 483.507C460.231 483.681 460.715 483.798 461.217 485.223C461.316 485.504 460.539 485.24 459.797 484.988L459.797 484.988L459.797 484.988C459.251 484.803 458.726 484.624 458.584 484.674C452.492 486.824 456.59 483.332 458.411 483.507ZM457.897 487.253C458.902 488.202 458.611 491.983 457.126 491.272C456.504 490.974 455.761 485.237 457.897 487.253ZM506.048 588.513C505.568 587.801 506.112 586.53 506.878 586.575C507.216 586.836 507.447 587.286 507.486 587.764C507.195 588.326 506.595 588.634 506.052 588.498L506.048 588.513ZM492.369 581.142L493.414 580.953L493.498 580.917C493.862 580.108 492.674 579.186 492.199 579.908C492.095 580.322 492.16 580.79 492.369 581.142ZM499.816 586.054C499.21 586.25 499.127 585.01 499.469 584.382L500.916 585.167C500.693 585.633 500.279 585.961 499.832 586.028L499.816 586.054ZM481.734 567.985C481.574 567.511 480.998 567.33 480.662 567.647L480.754 567.757C480.464 568.209 480.695 568.981 481.159 569.113C481.586 569.064 481.895 568.458 481.734 567.985ZM449.925 491.36C449.342 491.36 448.732 490.681 448.762 489.502C448.792 488.323 449.062 487.233 449.925 487.812C450.788 488.391 450.526 491.36 449.925 491.36ZM178.445 348.087C178.796 348.637 179.598 348.395 179.907 347.811C180.216 347.227 180.177 346.483 180.121 345.795C179.313 335.859 177.148 326.081 173.735 316.963C172.763 314.366 171.74 311.127 173.229 308.903C176.669 319.142 180.139 329.508 181.392 340.434C181.734 343.416 181.857 346.682 180.46 349.191C179.064 351.7 175.585 352.662 174.033 350.286C176.419 349.692 178.245 346.815 178.073 343.92C179.175 344.814 179.365 346.936 178.445 348.087ZM206.257 545.383C218.742 544.567 233.205 542.421 239.754 529.739C241.452 526.451 241.09 521.281 240.791 517.02C240.551 513.598 240.353 510.762 241.297 509.961C243.415 508.163 245.11 512.8 245.11 512.8C245.173 512.494 245.244 512.114 245.324 511.685C245.916 508.525 247.005 502.705 248.718 503.798C249.422 504.248 249.179 507.077 249.013 509.022C248.974 509.478 248.939 509.886 248.921 510.203C248.882 510.503 248.876 510.754 248.906 510.932C248.93 510.92 248.954 510.904 248.98 510.883C248.989 510.881 248.998 510.876 249.009 510.867C249.02 510.857 249.033 510.842 249.046 510.823C249.323 510.544 249.702 509.857 250.124 509.092C250.998 507.507 252.056 505.591 252.764 506.295C253.877 507.401 249.921 514.463 249.921 514.463C249.921 514.463 254.619 508.316 255.016 510.932C255.412 513.548 244.712 537.176 235.054 546.443C225.396 555.709 211.787 560.897 199.481 559.039C199.756 553.229 201.376 545.701 206.257 545.383ZM249.046 510.823C249.024 510.845 249.002 510.865 248.98 510.883C248.906 510.897 248.897 510.634 248.921 510.203C249.012 509.519 249.28 508.582 249.71 507.687C249.678 507.808 249.646 507.927 249.614 508.045C249.565 508.226 249.517 508.402 249.47 508.571C249.128 509.823 248.879 510.73 249.137 510.659C249.102 510.732 249.072 510.786 249.046 510.823ZM251.372 505.491C250.68 506.012 250.121 506.83 249.71 507.687C250.351 505.27 251 502.221 249.422 501.977C246.746 501.564 244.13 506.749 244.595 509.504C243.852 507.309 240.762 508.259 240.014 510.451C239.44 512.133 239.684 513.975 239.926 515.804C240 516.358 240.073 516.911 240.123 517.458C240.927 526.198 235.424 534.368 228.752 538.137C222.461 541.691 215.322 542.191 208.34 542.448L206.711 542.505C202.724 542.629 198.407 542.52 195.365 539.49C192.23 536.368 192.234 528.961 196.17 527.653C206.162 524.33 213.784 512.738 214.094 500.392C214.186 496.743 216.173 493.707 218.094 490.773C218.267 490.509 218.439 490.247 218.609 489.984L219.031 489.326C221.181 485.93 222.948 481.252 221.143 477.582C218.346 481.856 213.106 483.579 208.863 481.62C207.093 480.803 205.525 479.438 203.966 478.081C201.879 476.265 199.809 474.463 197.296 474.013C192.38 473.131 187.505 479.057 188.346 484.89C187.015 483.561 184.95 485.573 184.806 487.635C184.721 488.846 184.989 490.025 185.258 491.208C185.446 492.039 185.635 492.872 185.704 493.721C185.783 494.709 185.699 495.698 185.613 496.688L185.613 496.688V496.689V496.689C185.556 497.358 185.498 498.027 185.491 498.698C185.456 502.17 186.755 505.384 188.035 508.548C188.164 508.867 188.293 509.187 188.42 509.505L188.763 510.374C190.22 514.135 191.3 518.61 189.747 522.316C188.195 526.023 182.91 527.184 181.412 523.446C174.074 505.123 157.441 492.648 140.392 492.678C120.652 492.714 102.891 508.202 91.2575 527.19C89.8066 529.558 88.3865 532.109 88.0703 535.016C87.7541 537.923 88.8871 541.26 91.2097 542.232C93.5323 543.205 96.544 540.485 95.7871 537.696C96.9655 539.333 99.3755 537.784 99.9306 535.732C100.242 534.578 100.239 533.362 100.235 532.141C100.232 531.189 100.229 530.235 100.376 529.306C101.095 524.753 105.029 522.123 108.57 520.2L109.284 519.814C117.624 515.321 126.313 511.309 135.436 510.546C144.819 509.761 154.832 512.866 161.28 521.02C152.481 523.505 147.372 534.016 143.299 543.725L142.734 545.079C138.621 554.911 133.235 565.638 124.217 567.722C124.56 569.84 126.131 571.592 127.929 571.862L94.8687 595.263L97.4049 599.009C89.3555 613.697 80.2517 627.566 70.2253 640.414C64.7739 647.4 57.6953 654.639 49.8037 653.013C48.3767 652.719 46.9931 652.136 45.6143 651.554C43.5954 650.703 41.5867 649.856 39.4669 649.928C35.8994 650.049 32.3193 655.216 34.7408 658.338C40.1038 665.251 46.2246 671.329 52.899 676.37L53.0719 676.499C53.8844 677.101 54.7781 677.664 55.7202 677.536C56.6726 677.406 57.4481 676.599 58.1565 675.83L102.931 627.224C106.598 623.275 110.633 619.324 115.518 618.743L115.93 618.685C119.543 618.086 122.519 615.366 125.504 612.639C126.804 611.451 128.105 610.262 129.461 609.246C134.05 605.808 141.661 605.455 143.445 611.55C144.394 614.79 143.152 618.084 141.929 621.332C141.564 622.299 141.201 623.263 140.898 624.219C139.579 628.385 140.66 634.794 144.399 634.715L165.324 634.274C166.076 634.265 166.868 634.316 167.453 634.863C168.065 635.436 168.279 636.39 168.397 637.325L168.446 637.754C169.234 645.384 169.125 653.145 168.124 660.74C167.039 668.971 164.152 678.024 157.629 681.042C153.515 682.946 148.932 681.958 144.599 680.776L118.269 673.454C118.225 669.657 121.11 666.566 124.185 665.56C126.792 664.707 129.53 664.968 132.243 665.225C132.409 665.241 132.576 665.257 132.742 665.272L133.698 665.357C140.362 665.903 147.099 665.166 153.567 663.183L144.233 635.374C145.185 644.606 147.282 653.67 150.436 662.18L119.753 663.365C117.082 663.454 114.115 663.313 112.319 660.992C111.858 660.396 111.474 659.662 111.093 658.936C110.311 657.444 109.544 655.979 108.155 655.788C106.956 655.622 105.869 656.576 104.95 657.51C98.9512 663.602 93.9704 671.109 90.3818 679.468C91.6756 683.282 95.9623 684.349 99.2924 683.255C101.241 682.614 103.019 681.461 104.8 680.305C106.064 679.485 107.33 678.664 108.659 678.024C116.076 674.454 124.23 676.873 132.063 679.682L136.715 681.369C145.909 684.656 157.12 686.343 164.01 678.384C168.076 673.687 169.557 666.698 170.362 660.022C172.685 640.756 170.802 620.793 164.947 602.621C171.475 599.623 174.555 590.929 176.95 583.102L181.64 567.773C183.207 562.651 186.767 556.367 191.004 558.431C203.117 564.329 217.425 561.835 228.702 553.929C239.98 546.023 248.422 533.217 254.108 519.183L254.26 518.804C255.373 516.015 256.791 509.508 255.524 508.787C255.052 508.346 254.211 509.079 253.638 509.578C253.328 509.848 253.096 510.05 253.043 509.961C253.011 509.907 253.115 509.546 253.262 509.036C253.841 507.026 255.092 502.689 251.372 505.491ZM171.212 591.538C169.747 595.461 167.322 600.078 163.743 599.557C161.826 599.278 160.379 597.556 159.076 595.785L158.379 594.824C150.814 584.369 140.538 577.42 130.209 571.023L126.768 568.907C135.181 566.937 140.372 557.03 144.077 547.824L145.259 544.89C148.647 536.526 152.503 527.919 159.493 524.154C160.459 523.633 161.567 523.219 162.564 523.651C162.715 523.717 162.877 523.791 163.047 523.869C164.277 524.432 165.861 525.157 165.836 523.77C163.593 522.693 163.225 518.799 164.518 516.366C165.7 514.145 167.745 512.864 169.771 511.759L170.349 511.448C169.056 509.327 166.256 511.11 164.793 513.068L164.672 513.228C163.204 515.146 160.95 517.246 159.255 515.687C152.252 509.244 142.918 507.176 134.108 508.187C125.299 509.199 116.894 513.034 108.846 517.418C105.897 519.025 102.901 520.777 100.712 523.627C99.0181 525.832 98.8426 528.767 98.6662 531.716C98.6146 532.58 98.5629 533.444 98.473 534.292C98.2557 536.343 97.3082 536.422 96.4736 536.491C96.0263 536.528 95.6114 536.562 95.3588 536.896C95.3385 536.923 95.2738 537.041 95.1764 537.219L95.1748 537.222L95.1746 537.222C94.6735 538.139 93.3175 540.618 92.7051 540.371C91.8056 540.008 92.2643 537.696 92.2643 537.696C92.2643 537.696 89.5949 538.604 89.3962 537.696C88.7011 534.517 92.7051 528.014 92.7051 528.014C99.437 516.223 109.42 506.439 120.396 500.752C131.575 494.959 144.62 493.841 156.048 498.898C168.931 504.599 179.133 518.219 182.423 534.108C183.242 538.069 187.113 539.818 190.494 540.477C190.813 540.538 191.135 540.598 191.459 540.659C194.58 541.239 197.899 541.857 199.888 544.694C200.474 545.53 200.312 546.768 200.111 547.83L200.052 548.136C199.31 551.926 198.015 556.167 194.923 557.317C192.113 558.362 188.783 555.664 188.568 552.168C188.549 551.86 188.543 551.534 188.537 551.204C188.514 549.845 188.489 548.414 187.53 547.853L171.212 591.538ZM144.634 612.261C143.583 605.831 140.389 600.046 136.198 595.803C136.361 598.33 137.259 600.782 138.704 602.644C131.602 605.332 124.904 609.528 119.021 614.975C117.447 616.433 114.772 617.763 113.85 615.657C110.221 607.373 104.446 600.444 97.5152 596.062L126.008 576.567C127.296 575.686 128.658 574.78 130.143 574.762C131.295 574.749 132.388 575.274 133.429 575.885L133.946 576.196C144.608 582.734 154.153 591.844 161.833 602.813C163.734 605.528 164.619 609.006 165.372 612.446L168.762 628.21C168.986 629.255 169.151 630.547 168.464 631.249C168.077 631.644 167.533 631.712 167.025 631.758L166.43 631.812C157.993 632.586 151.186 633.21 142.734 631.758C141.472 628.879 142.426 625.311 143.41 621.627C144.253 618.47 145.119 615.228 144.634 612.261ZM102.246 602.567C105.408 605.882 108.258 609.617 110.726 613.681C110.99 614.116 111.262 614.601 111.234 615.137C111.201 615.762 110.776 616.242 110.38 616.655L73.5537 655.03C72.0182 656.63 69.5686 656.35 67.8485 655.043C66.3435 653.899 65.2675 652.145 64.2801 650.357L63.8614 649.59C73.459 643.585 79.6156 632.827 85.8269 621.974C89.723 615.166 93.6406 608.32 98.4424 602.587C98.9091 602.029 99.4357 601.452 100.093 601.364C100.905 601.256 101.632 601.923 102.246 602.567ZM209.49 495.524L210.43 495.868C212.261 496.542 212.565 499.463 212.332 501.728C211.367 511.107 206.471 520.39 198.922 523.304L198.652 523.412C193.733 525.479 190.216 531.607 190.426 537.822C187.124 538.558 183.584 535.413 183.237 531.435C183.168 530.641 183.365 529.611 184.027 529.49C187.027 528.941 189.786 526.749 191.363 523.662C192.94 520.574 193.306 516.649 192.336 513.225C192.137 512.526 191.885 511.826 191.633 511.124L191.633 511.124C190.916 509.131 190.195 507.13 190.699 505.119C191.849 505.245 192.067 507.123 191.946 508.49L191.933 508.656C191.84 510.004 192.039 511.733 193.138 511.913C193.862 509.934 194.012 507.718 194.161 505.519C194.35 502.743 194.537 499.994 195.874 497.781C197.403 495.252 200.145 494.09 202.762 494.054C205.052 494.022 207.291 494.73 209.49 495.524ZM44.0232 653.646L44.2593 653.321C45.5773 652.978 46.8359 654.987 46.1832 656.393C45.7644 657.295 47.0523 658.188 47.7713 657.614C48.4904 657.04 48.6355 655.875 48.7146 654.848C49.438 654.578 50.0639 655.565 50.2004 656.453C50.2365 656.688 50.2589 656.93 50.2813 657.173C50.3437 657.85 50.4062 658.527 50.7646 659.036C51.2517 659.728 52.5423 659.37 52.3306 658.503C52.0148 657.21 53.2977 656.155 54.4173 655.964C54.6861 655.918 54.9638 655.891 55.2421 655.864L55.243 655.864C56.1234 655.778 57.011 655.691 57.6519 655.01L57.7486 654.918C58.5619 654.231 59.569 655.502 60.1829 656.631L60.4684 657.178C61.8183 659.676 64.1127 661.426 66.5863 661.825C67.071 661.904 66.8245 662.804 66.4684 663.203L58.1199 672.564C57.7153 673.017 57.0595 672.695 56.5854 672.349C51.6299 668.736 47.0552 664.384 43.0024 659.427C41.7256 657.865 42.8084 655.373 44.0232 653.646ZM117.031 671.068C116.79 672.248 116.106 673.569 115.089 673.48C112.636 673.264 110.15 673.616 107.808 674.51C108.023 673.322 107.586 672.003 106.748 671.309C106.136 672.35 106.386 673.965 107.27 674.678L104.936 677.424L103.818 674.367C103.267 674.542 103.251 675.347 103.289 676.085L103.317 676.543C103.428 678.478 102.05 680.36 100.424 680.491C98.7981 680.621 97.2195 678.977 97.112 677.041C96.9949 674.933 98.3514 673.164 99.6125 671.676L108.568 661.119C108.758 660.904 108.976 660.703 109.233 660.708C109.517 660.714 109.748 660.971 109.948 661.211L113.442 665.41C114.12 666.224 113.691 667.469 113.274 668.683C112.844 669.933 112.426 671.149 113.238 671.827C114.027 671.882 114.685 671.065 114.989 670.195C115.144 669.752 115.238 669.283 115.332 668.815C115.422 668.365 115.513 667.915 115.657 667.487C115.952 666.612 116.587 665.78 117.378 665.8C118.169 665.82 118.78 667.166 118.168 667.763C117.516 668.4 117.33 669.436 117.148 670.443C117.111 670.654 117.073 670.863 117.031 671.068ZM55.8043 675.736C47.7553 670.61 40.6405 663.417 35.0871 654.791C35.8153 653.969 36.9104 654.843 37.6147 655.774L37.7891 656.017C43.0657 663.791 49.6925 670.26 57.1294 674.897C57.0692 675.596 56.3248 676.067 55.8043 675.736ZM94.4062 673.773C97.8928 668.344 101.756 663.257 105.943 658.583C106.593 657.858 107.941 657.37 108.105 658.411C103.23 663.951 98.5675 669.757 94.1366 675.803C93.655 675.305 94.019 674.376 94.4062 673.773ZM67.6288 660.199C65.1958 659.168 63.0268 657.272 61.4728 654.816C60.888 653.892 60.5192 652.287 61.4052 651.812C62.1054 651.437 62.7781 652.225 63.2665 652.989L63.6327 653.582C65.2065 656.055 67.4513 657.914 69.9479 658.804C69.9523 659.597 69.4009 660.34 68.7393 660.432C68.3626 660.485 67.9862 660.35 67.6288 660.199ZM187.023 499.536C188.167 499.569 189.136 500.988 188.928 502.328L188.955 502.347C189.113 503.318 189.009 504.347 188.661 505.245C187.411 503.785 186.784 501.603 187.023 499.536ZM208.814 499.57C208.958 499.554 209.11 499.539 209.264 499.536C209.457 499.534 209.68 499.575 209.889 499.613C210.456 499.718 210.929 499.805 210.482 498.971C209.868 497.827 208.073 497.699 207.779 499.009C207.861 499.67 208.289 499.625 208.814 499.57ZM210.259 505.224L210.26 505.221L210.272 505.162L210.285 505.106C210.721 503.138 210.468 501.584 209.264 501.584C208.799 501.626 208.09 504.444 208.157 505.298C208.225 506.153 209.034 506.944 209.66 506.519C210.032 506.268 210.151 505.721 210.259 505.224ZM202.313 504.627C201.473 503.238 201.385 501.261 202.097 499.774C202.203 499.552 202.331 499.334 202.517 499.207C202.989 498.885 203.619 499.321 203.827 499.918C204.034 500.516 203.944 501.193 203.85 501.83C203.85 501.83 203.153 506.015 202.313 504.627ZM380.205 504.667C364.864 500.187 348.838 499.054 333.16 501.344C335.881 493.796 337.075 485.475 336.614 477.28C332.529 480.689 325.821 476.69 325.667 470.753C325.512 464.816 331.998 460.329 336.253 463.43C337.381 464.252 338.621 462.547 339.072 461.067C340.608 456.025 340.623 450.347 339.114 445.294C338.526 443.326 341.02 442.258 342.775 442.3L357.662 442.651C358.662 442.674 359.724 442.679 360.577 442.059C361.431 441.44 361.916 439.949 361.289 439.022C358.713 435.216 361.673 428.405 365.771 428.711C369.868 429.018 372.09 436.216 369.134 439.609C368.583 440.241 369.654 441.056 370.42 441.077L389.886 441.61C393.758 441.717 396.493 446.627 396.651 451.234C396.785 455.133 395.622 458.866 394.474 462.555C394.374 462.876 394.274 463.197 394.175 463.518L393.857 464.561C390.409 476.08 389.299 488.58 390.648 500.702C390.912 503.067 389.083 505.171 387.126 505.682C385.399 506.134 383.621 505.686 381.893 505.171L380.205 504.667Z" fill="#00160A"/>
<path fill-rule="evenodd" clip-rule="evenodd" d="M172.714 292.532C172.856 291.439 174.079 290.808 174.963 291.183C175.846 291.558 176.635 293.067 175.988 293.921C174.963 295.272 172.439 294.652 172.714 292.532Z" fill="#FFB61D"/>
<path fill-rule="evenodd" clip-rule="evenodd" d="M557.404 575.419C556.826 575.997 555.667 576.205 555.559 575.317C557.814 572.585 559.365 569.041 559.954 565.276C560.69 565.042 560.903 566.437 560.718 567.317C560.096 570.283 559.37 573.454 557.404 575.419Z" fill="#00160A"/>
<path d="M59.6387 250.012C59.6158 250.892 58.494 250.841 57.8157 250.49C58.0599 249.704 59.0498 249.441 59.5512 250.029L59.6387 250.012Z" fill="black"/>
<path fill-rule="evenodd" clip-rule="evenodd" d="M379.747 491.898C378.966 492.726 377.651 491.46 377.767 490.222C377.883 488.984 378.804 488.098 379.688 487.431C382.855 485.042 386.523 483.603 390.262 483.281C390.363 484.979 388.514 485.68 387.111 486.006C384.134 486.697 381.298 488.233 378.904 490.45C379.336 490.766 379.65 491.304 379.747 491.898V491.898Z" fill="#00160A"/>
<path fill-rule="evenodd" clip-rule="evenodd" d="M390.368 494.063C388.613 495.071 386.828 496.002 385.016 496.855C385.222 497.766 386.32 497.735 387.065 497.415C387.81 497.095 388.789 496.759 389.272 497.506C388.047 499.732 385.011 500.079 383.452 498.171C382.775 497.342 381.548 497.888 380.673 497.385C379.421 496.665 379.654 494.413 380.391 493.009C381.93 490.077 384.866 488.269 387.765 488.468C388.869 488.543 390.188 489.192 390.262 490.506C386.799 490.247 383.269 491.946 380.932 494.998C382.259 496.222 384.165 495.309 385.662 494.405C387.16 493.501 389.138 492.703 390.368 494.063Z" fill="#00160A"/>
<path fill-rule="evenodd" clip-rule="evenodd" d="M206.05 505.757C207.044 506.941 207.457 507.483 207.457 509.224C207.457 510.965 206.663 512.083 205.324 512.594C204.707 512.83 203.853 512.649 203.692 511.901C208.153 510.816 206.514 508.501 206.05 505.757Z" fill="#00160A"/>
<path fill-rule="evenodd" clip-rule="evenodd" d="M200.098 498.35C200.574 496.471 202.644 495.455 204.093 496.39C204.667 496.759 205.144 497.433 205.173 498.208C203.481 498.256 202.088 496.953 200.098 498.35Z" fill="#00160A"/>
<path fill-rule="evenodd" clip-rule="evenodd" d="M204.148 515.134C202.099 516.89 194.711 508.896 204.148 515.134V515.134Z" fill="#00160A"/>
</svg>
